<?xml version="1.0" encoding="utf-8"?>
<!-- Generator: Adobe Illustrator 26.0.3, SVG Export Plug-In . SVG Version: 6.00 Build 0)  -->
<svg version="1.1" id="Layer_1" xmlns="http://www.w3.org/2000/svg" xmlns:xlink="http://www.w3.org/1999/xlink" x="0px" y="0px"
	 viewBox="0 0 1080 1080" style="enable-background:new 0 0 1080 1080;" xml:space="preserve">
<style type="text/css">
	.st0{fill:#1A5632;}
</style>
<g>
	<g>
		<path class="st0" d="M124.79,444.55c-5.08,28.84-28.1,41.55-62.17,41.55c-40.5,0-63.07-22.27-63.07-55.6
			c0-29.44,18.38-55,64.41-55c41.25,0,58.74,19.28,61.28,40.94H79.06c-1.2-7.47-4.19-14.34-14.95-14.34
			c-10.91,0-16.14,9.11-16.14,28.24c0,13.75,2.54,27.95,16.14,27.95c10.61,0,13.9-6.27,15.54-13.74H124.79z"/>
		<path class="st0" d="M265.69,430.8c0,30.93-20.18,55.3-66.06,55.3c-41.4,0-63.81-23.92-63.81-55.15
			c0-29.14,18.08-55.44,65.76-55.44C240.58,375.51,265.69,398.67,265.69,430.8z M184.23,430.06c0,16.44,3.59,28.24,17.04,28.24
			c13.16,0,15.99-11.8,15.99-27.35c0-18.83-3.44-28.84-16.74-28.84C188.57,402.11,184.23,412.12,184.23,430.06z"/>
		<path class="st0" d="M280.89,378.19h46.18v76.82h53.8l-4.78,28.39h-95.2V378.19z"/>
		<path class="st0" d="M488.76,444.4H435.4v10.77h60.08l-5.38,28.24h-99.24V378.19h100.58v28.39H435.4V416h53.35V444.4z"/>
		<path class="st0" d="M629.36,444.55c-5.08,28.84-28.1,41.55-62.17,41.55c-40.5,0-63.07-22.27-63.07-55.6
			c0-29.44,18.38-55,64.41-55c41.25,0,58.74,19.28,61.28,40.94h-46.18c-1.2-7.47-4.19-14.34-14.95-14.34
			c-10.91,0-16.14,9.11-16.14,28.24c0,13.75,2.54,27.95,16.14,27.95c10.61,0,13.9-6.27,15.54-13.74H629.36z"/>
		<path class="st0" d="M668.63,406.58h-31.68v-28.39h108.95v28.39h-31.38v76.82h-45.88V406.58z"/>
		<path class="st0" d="M804.9,378.19V483.4h-46.03V378.19H804.9z"/>
		<path class="st0" d="M852.41,483.4L813.7,378.19h48.87l11.96,44.39c4.04,14.79,5.38,21.81,7.03,30.19h0.3
			c1.65-7.77,2.99-14.8,6.88-29.6l10.76-44.99h49.47L909.5,483.4H852.41z"/>
		<path class="st0" d="M1079.55,430.8c0,30.93-20.18,55.3-66.06,55.3c-41.4,0-63.81-23.92-63.81-55.15
			c0-29.14,18.08-55.44,65.76-55.44C1054.44,375.51,1079.55,398.67,1079.55,430.8z M998.1,430.06c0,16.44,3.59,28.24,17.04,28.24
			c13.16,0,15.99-11.8,15.99-27.35c0-18.83-3.44-28.84-16.74-28.84C1002.43,402.11,998.1,412.12,998.1,430.06z"/>
		<path class="st0" d="M181.86,569.06c-5.08,28.84-28.1,41.55-62.17,41.55c-40.5,0-63.07-22.27-63.07-55.6
			c0-29.44,18.38-55,64.42-55c41.24,0,58.73,19.28,61.27,40.95h-46.18c-1.2-7.47-4.19-14.35-14.95-14.35
			c-10.91,0-16.14,9.12-16.14,28.25c0,13.75,2.54,27.95,16.14,27.95c10.61,0,13.9-6.28,15.54-13.75H181.86z"/>
		<path class="st0" d="M240.27,502.71v105.21h-46.03V502.71H240.27z"/>
		<path class="st0" d="M305.56,570.71v37.21h-44.68V502.71h72.48c28.55,0,42,13.45,42,29.89c0,13.15-7.18,21.82-18.23,25.86
			c9.26,3.89,15.24,11.06,15.24,26.76v6.27c0,4.04,0.3,11.21,1.64,16.45h-44.09c-1.64-4.04-2.24-11.66-2.24-21.08v-3.73
			c0-10.17-2.54-12.4-13.15-12.4H305.56z M305.56,546.65h13.16c5.23,0,11.21-1.95,11.21-8.67c0-5.82-4.48-8.82-11.51-8.82h-12.85
			V546.65z"/>
		<path class="st0" d="M510.43,569.06c-5.08,28.84-28.1,41.55-62.17,41.55c-40.5,0-63.07-22.27-63.07-55.6
			c0-29.44,18.38-55,64.42-55c41.24,0,58.73,19.28,61.27,40.95H464.7c-1.2-7.47-4.19-14.35-14.95-14.35
			c-10.91,0-16.14,9.12-16.14,28.25c0,13.75,2.54,27.95,16.14,27.95c10.61,0,13.9-6.28,15.54-13.75H510.43z"/>
		<path class="st0" d="M569.28,502.71v63.66c0,8.37,2.99,14.5,12.4,14.5c10.46,0,12.1-7.77,12.1-14.5v-63.66h46.03v62.17
			c0,29-15.24,45.73-59.18,45.73c-42.45,0-57.39-17.34-57.39-46.62v-61.28H569.28z"/>
		<path class="st0" d="M658.92,502.71h46.18v76.82h53.8l-4.78,28.39h-95.2V502.71z"/>
		<path class="st0" d="M812.08,592.98l-3.74,14.94H763.5l36.17-105.21h60.53l39.46,105.21h-49.02l-4.04-14.94H812.08z
			 M838.08,564.57c-2.69-11.36-5.68-23.31-8.52-33.17h-1.2c-2.09,9.87-5.68,23.61-8.07,33.17H838.08z"/>
		<path class="st0" d="M952.68,570.71v37.21h-44.69V502.71h72.48c28.55,0,42,13.45,42,29.89c0,13.15-7.18,21.82-18.23,25.86
			c9.26,3.89,15.24,11.06,15.24,26.76v6.27c0,4.04,0.3,11.21,1.64,16.45h-44.09c-1.64-4.04-2.24-11.66-2.24-21.08v-3.73
			c0-10.17-2.54-12.4-13.15-12.4H952.68z M952.68,546.65h13.15c5.23,0,11.21-1.95,11.21-8.67c0-5.82-4.48-8.82-11.51-8.82h-12.85
			V546.65z"/>
	</g>
	<g>
		<path class="st0" d="M240.94,649.99h36.96c14.38,0,20.49,6.48,20.49,13.71c0,6.25-3.95,9.68-9.01,11.18
			c5.44,1.48,11.25,5.06,11.25,12.37c0,7.9-5.52,15.2-22.5,15.2h-37.18V649.99z M271.12,669.81c3.65,0,4.99-1.94,4.99-4.02
			c0-2.31-1.72-3.8-5.07-3.8H263v7.83H271.12z M263,690.52h7.82c4.4,0,6.04-2.08,6.04-4.62c0-2.23-1.42-4.4-5.82-4.4H263V690.52z"/>
		<path class="st0" d="M320.04,702.44v-17.58c0-1.05-0.22-1.49-0.89-2.54l-20.12-32.34h26.53c2.9,6.63,4.62,11.85,7.15,18.26
			c2.16-6.03,3.95-10.66,7.08-18.26h24.29l-20.49,32.71c-0.3,0.53-0.6,1.27-0.6,2.54v17.21H320.04z"/>
		<path class="st0" d="M413.74,649.99v31.74c0,4.17,1.49,7.23,6.18,7.23c5.21,0,6.03-3.88,6.03-7.23v-31.74h22.95v31
			c0,14.45-7.6,22.8-29.51,22.8c-21.16,0-28.61-8.64-28.61-23.24v-30.55H413.74z"/>
		<path class="st0" d="M455.13,702.44v-19.3h18.85v19.3H455.13z"/>
		<path class="st0" d="M502.16,686.72c0.52,2.17,1.87,4.62,5.89,4.62c3.06,0,4.7-1.19,4.7-2.98c0-1.87-0.52-3.2-9.09-4.77
			c-20.57-3.73-22.58-11.26-22.58-17.96c0-9.68,8.65-16.98,26.16-16.98c16.02,0,26.6,5.73,27.42,16.24h-21.53
			c-0.45-2.23-1.64-3.94-5.14-3.94c-2.53,0-3.8,0.96-3.8,2.46c0,1.78,2.23,2.68,8.05,3.72c19.23,3.36,24.37,9.91,24.37,18.18
			c0,11.4-10.58,18.47-28.09,18.47c-19.08,0-27.72-7.44-29.28-17.06H502.16z"/>
		<path class="st0" d="M542.06,702.44v-19.3h18.85v19.3H542.06z"/>
		<path class="st0" d="M638.05,688.21c0-7.3,0.3-18.63,0.82-25.25h-0.3c-2.38,10.28-4.47,22.8-8.5,39.49H612.8
			c-3.2-16.99-4.47-28.61-6.7-39.79h-0.23c0.23,6.11,0.97,16.46,0.97,25.56v14.23h-20.34v-52.46h32.41
			c0.67,4.02,2.83,17.28,4.17,28.24h0.15c1.71-10.43,4.25-22.72,5.44-28.24h32.04v52.46h-22.65V688.21z"/>
		<path class="st0" d="M719.84,682.99h-26.6v5.37h29.95l-2.68,14.08h-49.48v-52.46h50.15v14.16h-27.94v4.69h26.6V682.99z"/>
		<path class="st0" d="M750.35,694.99l-1.86,7.45h-22.36l18.03-52.46h30.18l19.67,52.46h-24.44l-2.01-7.45H750.35z M763.31,680.84
			c-1.34-5.67-2.83-11.63-4.25-16.55h-0.6c-1.04,4.91-2.83,11.78-4.02,16.55H763.31z"/>
		<path class="st0" d="M803.88,664.15h-15.8v-14.16h54.32v14.16h-15.64v38.3h-22.87V664.15z"/>
	</g>
</g>
</svg>
