<?xml version="1.0" encoding="utf-8"?>
<!-- Generator: Adobe Illustrator 26.2.1, SVG Export Plug-In . SVG Version: 6.00 Build 0)  -->
<svg version="1.1" id="Layer_1" xmlns="http://www.w3.org/2000/svg" xmlns:xlink="http://www.w3.org/1999/xlink" x="0px" y="0px"
	 viewBox="0 0 1080 326.9" style="enable-background:new 0 0 1080 326.9;" xml:space="preserve">
<style type="text/css">
	.st0{fill:#1A5632;}
	.st1{fill:#CDDB00;}
</style>
<g>
	<g>
		<path class="st0" d="M124.8,69.1c-5.1,28.8-28.1,41.5-62.2,41.5C22.1,110.6-0.4,88.3-0.4,55C-0.4,25.6,17.9,0,64,0
			c41.2,0,58.7,19.3,61.3,40.9H79.1c-1.2-7.5-4.2-14.3-14.9-14.3C53.2,26.6,48,35.7,48,54.8c0,13.8,2.5,28,16.1,28
			c10.6,0,13.9-6.3,15.5-13.7H124.8z"/>
		<path class="st0" d="M265.7,55.3c0,30.9-20.2,55.3-66.1,55.3c-41.4,0-63.8-23.9-63.8-55.1c0-29.1,18.1-55.4,65.8-55.4
			C240.6,0,265.7,23.2,265.7,55.3z M184.2,54.6c0,16.4,3.6,28.2,17,28.2c13.2,0,16-11.8,16-27.4c0-18.8-3.4-28.8-16.7-28.8
			C188.6,26.6,184.2,36.6,184.2,54.6z"/>
		<path class="st0" d="M280.9,2.7h46.2v76.8h53.8l-4.8,28.4h-95.2V2.7z"/>
		<path class="st0" d="M488.8,68.9h-53.4v10.8h60.1l-5.4,28.2h-99.2V2.7h100.6v28.4h-56v9.4h53.4L488.8,68.9L488.8,68.9z"/>
		<path class="st0" d="M629.4,69.1c-5.1,28.8-28.1,41.5-62.2,41.5c-40.5,0-63.1-22.3-63.1-55.6c0-29.4,18.4-55,64.4-55
			c41.2,0,58.7,19.3,61.3,40.9h-46.2c-1.2-7.5-4.2-14.3-15-14.3c-10.9,0-16.1,9.1-16.1,28.2c0,13.8,2.5,28,16.1,28
			c10.6,0,13.9-6.3,15.5-13.7H629.4z"/>
		<path class="st0" d="M668.6,31.1H637V2.7h109v28.4h-31.4v76.8h-45.9L668.6,31.1L668.6,31.1z"/>
		<path class="st0" d="M804.9,2.7v105.2h-46V2.7H804.9z"/>
		<path class="st0" d="M852.4,107.9L813.7,2.7h48.9l12,44.4c4,14.8,5.4,21.8,7,30.2h0.3c1.7-7.8,3-14.8,6.9-29.6l10.8-45H949
			l-39.5,105.2H852.4z"/>
		<path class="st0" d="M1079.6,55.3c0,30.9-20.2,55.3-66.1,55.3c-41.4,0-63.8-23.9-63.8-55.1c0-29.1,18.1-55.4,65.8-55.4
			C1054.4,0,1079.6,23.2,1079.6,55.3z M998.1,54.6c0,16.4,3.6,28.2,17,28.2c13.2,0,16-11.8,16-27.4c0-18.8-3.4-28.8-16.7-28.8
			C1002.4,26.6,998.1,36.6,998.1,54.6z"/>
		<path class="st0" d="M181.9,193.6c-5.1,28.8-28.1,41.5-62.2,41.5c-40.5,0-63.1-22.3-63.1-55.6c0-29.4,18.4-55,64.4-55
			c41.2,0,58.7,19.3,61.3,41h-46.2c-1.2-7.5-4.2-14.3-14.9-14.3c-10.9,0-16.1,9.1-16.1,28.2c0,13.8,2.5,28,16.1,28
			c10.6,0,13.9-6.3,15.5-13.8L181.9,193.6L181.9,193.6z"/>
		<path class="st0" d="M240.3,127.2v105.2h-46V127.2H240.3z"/>
		<path class="st0" d="M305.6,195.2v37.2h-44.7V127.2h72.5c28.5,0,42,13.4,42,29.9c0,13.2-7.2,21.8-18.2,25.9
			c9.3,3.9,15.2,11.1,15.2,26.8v6.3c0,4,0.3,11.2,1.6,16.5h-44.1c-1.6-4-2.2-11.7-2.2-21.1v-3.7c0-10.2-2.5-12.4-13.1-12.4
			L305.6,195.2L305.6,195.2z M305.6,171.2h13.2c5.2,0,11.2-2,11.2-8.7c0-5.8-4.5-8.8-11.5-8.8h-12.9L305.6,171.2L305.6,171.2z"/>
		<path class="st0" d="M510.4,193.6c-5.1,28.8-28.1,41.5-62.2,41.5c-40.5,0-63.1-22.3-63.1-55.6c0-29.4,18.4-55,64.4-55
			c41.2,0,58.7,19.3,61.3,41h-46.2c-1.2-7.5-4.2-14.3-15-14.3c-10.9,0-16.1,9.1-16.1,28.2c0,13.8,2.5,28,16.1,28
			c10.6,0,13.9-6.3,15.5-13.8L510.4,193.6L510.4,193.6z"/>
		<path class="st0" d="M569.3,127.2v63.7c0,8.4,3,14.5,12.4,14.5c10.5,0,12.1-7.8,12.1-14.5v-63.7h46v62.2c0,29-15.2,45.7-59.2,45.7
			c-42.5,0-57.4-17.3-57.4-46.6v-61.3H569.3z"/>
		<path class="st0" d="M658.9,127.2h46.2V204h53.8l-4.8,28.4h-95.2L658.9,127.2L658.9,127.2z"/>
		<path class="st0" d="M812.1,217.5l-3.7,14.9h-44.8l36.2-105.2h60.5l39.5,105.2h-49l-4-14.9H812.1z M838.1,189.1
			c-2.7-11.4-5.7-23.3-8.5-33.2h-1.2c-2.1,9.9-5.7,23.6-8.1,33.2H838.1z"/>
		<path class="st0" d="M952.7,195.2v37.2H908V127.2h72.5c28.5,0,42,13.4,42,29.9c0,13.2-7.2,21.8-18.2,25.9
			c9.3,3.9,15.2,11.1,15.2,26.8v6.3c0,4,0.3,11.2,1.6,16.5H977c-1.6-4-2.2-11.7-2.2-21.1v-3.7c0-10.2-2.5-12.4-13.2-12.4
			L952.7,195.2L952.7,195.2z M952.7,171.2h13.2c5.2,0,11.2-2,11.2-8.7c0-5.8-4.5-8.8-11.5-8.8h-12.8L952.7,171.2L952.7,171.2z"/>
	</g>
	<g>
		<path class="st1" d="M240.9,274.5h37c14.4,0,20.5,6.5,20.5,13.7c0,6.2-4,9.7-9,11.2c5.4,1.5,11.2,5.1,11.2,12.4
			c0,7.9-5.5,15.2-22.5,15.2h-37.2L240.9,274.5L240.9,274.5z M271.1,294.3c3.6,0,5-1.9,5-4c0-2.3-1.7-3.8-5.1-3.8h-8v7.8
			L271.1,294.3L271.1,294.3z M263,315h7.8c4.4,0,6-2.1,6-4.6c0-2.2-1.4-4.4-5.8-4.4h-8V315z"/>
		<path class="st1" d="M320,326.9v-17.6c0-1-0.2-1.5-0.9-2.5L299,274.5h26.5c2.9,6.6,4.6,11.8,7.1,18.3c2.2-6,4-10.7,7.1-18.3h24.3
			l-20.5,32.7c-0.3,0.5-0.6,1.3-0.6,2.5v17.2H320z"/>
		<path class="st1" d="M413.7,274.5v31.7c0,4.2,1.5,7.2,6.2,7.2c5.2,0,6-3.9,6-7.2v-31.7h23v31c0,14.5-7.6,22.8-29.5,22.8
			c-21.2,0-28.6-8.6-28.6-23.2v-30.5L413.7,274.5L413.7,274.5z"/>
		<path class="st1" d="M455.1,326.9v-19.3H474v19.3H455.1z"/>
		<path class="st1" d="M502.2,311.2c0.5,2.2,1.9,4.6,5.9,4.6c3.1,0,4.7-1.2,4.7-3c0-1.9-0.5-3.2-9.1-4.8
			c-20.6-3.7-22.6-11.3-22.6-18c0-9.7,8.6-17,26.2-17c16,0,26.6,5.7,27.4,16.2h-21.5c-0.5-2.2-1.6-3.9-5.1-3.9c-2.5,0-3.8,1-3.8,2.5
			c0,1.8,2.2,2.7,8,3.7c19.2,3.4,24.4,9.9,24.4,18.2c0,11.4-10.6,18.5-28.1,18.5c-19.1,0-27.7-7.4-29.3-17.1L502.2,311.2
			L502.2,311.2z"/>
		<path class="st1" d="M542.1,326.9v-19.3h18.8v19.3H542.1z"/>
		<path class="st1" d="M638,312.7c0-7.3,0.3-18.6,0.8-25.2h-0.3c-2.4,10.3-4.5,22.8-8.5,39.5h-17.3c-3.2-17-4.5-28.6-6.7-39.8h-0.2
			c0.2,6.1,1,16.5,1,25.6V327h-20.3v-52.5h32.4c0.7,4,2.8,17.3,4.2,28.2h0.2c1.7-10.4,4.2-22.7,5.4-28.2h32V327h-22.7L638,312.7
			L638,312.7z"/>
		<path class="st1" d="M719.8,307.5h-26.6v5.4h30l-2.7,14.1H671v-52.5h50.2v14.2h-27.9v4.7h26.6L719.8,307.5L719.8,307.5z"/>
		<path class="st1" d="M750.3,319.5l-1.9,7.5h-22.4l18-52.5h30.2l19.7,52.5h-24.4l-2-7.5H750.3z M763.3,305.3
			c-1.3-5.7-2.8-11.6-4.2-16.5h-0.6c-1,4.9-2.8,11.8-4,16.5H763.3z"/>
		<path class="st1" d="M803.9,288.7h-15.8v-14.2h54.3v14.2h-15.6V327h-22.9L803.9,288.7L803.9,288.7z"/>
	</g>
</g>
</svg>
