<?xml version="1.0" encoding="utf-8"?>
<!-- Generator: Adobe Illustrator 26.0.3, SVG Export Plug-In . SVG Version: 6.00 Build 0)  -->
<svg version="1.1" id="Layer_1" xmlns="http://www.w3.org/2000/svg" xmlns:xlink="http://www.w3.org/1999/xlink" x="0px" y="0px"
	 viewBox="0 0 1080 1080" style="enable-background:new 0 0 1080 1080;" xml:space="preserve">
<style type="text/css">
	.st0{fill:#FAF5D2;}
	.st1{fill-rule:evenodd;clip-rule:evenodd;fill:#FAF5D2;}
</style>
<g>
	<g>
		<g>
			<g>
				<g>
					<path class="st0" d="M624.96,3.07L614.11,56.7c-4.09,20.33,5.82,28.14,16.9,30.4c12.94,2.6,23.15-1.71,27.16-21.53L669,11.94
						l13.32,2.73l-10.7,52.95c-5.9,29.24-23.94,34.15-43.06,30.31c-18.91-3.84-33.49-15.94-27.84-43.87l10.85-53.71L624.96,3.07z"/>
					<path class="st0" d="M681.85,109.3l35.62-83.73l16.18,6.86c3.45,24.43,11.19,75.16,11.85,86.2l0.17,0.09
						c3.58-10.74,9.38-24.17,15.2-37.86l13.28-31.21l11.62,4.95l-35.64,83.73l-15.22-6.44c-3.09-22.38-10.64-77.2-11.66-88.8
						l-0.17-0.09c-3.28,9.38-9.51,24.17-15.94,39.26l-13.6,32.02L681.85,109.3z"/>
					<path class="st0" d="M791.73,133.56l-22.42,16.41l-11.11-7.55l77.97-57.29l13.85,9.42l-23.57,94.34l-11.89-8.1l6.78-27.07
						L791.73,133.56z M825.05,142.38c6.16-23.75,9.44-36.79,11.81-43.91l-0.11-0.04c-6.33,5.33-19.18,14.96-35.81,27.54
						L825.05,142.38z"/>
					<path class="st0" d="M930.02,163.49l-64.76,63.86l-9.49-9.63l64.78-63.82L930.02,163.49z"/>
					<path class="st0" d="M880.53,242.01l73.09-53.67l10.36,14.11c-9.46,22.68-28.6,70.13-33.66,79.89l0.11,0.17
						c8.53-7.38,20.31-15.94,32.27-24.73l27.24-19.99l7.44,10.15l-73.09,53.67l-9.76-13.3c8.72-20.72,30.12-71.58,35.13-82.02
						l-0.11-0.17c-7.57,6.39-20.44,15.9-33.61,25.58l-27.92,20.51L880.53,242.01z"/>
					<path class="st0" d="M1019.67,288.61l-80.04,43.01l-6.39-11.85l80.04-43.01L1019.67,288.61z"/>
					<path class="st0" d="M999.66,408.27c-16.11,1.83-31.14-5.07-38.54-24.77c-9.66-25.75,4.82-45.83,28.9-54.87
						c23.17-8.65,48.92-3.58,58.74,22.55c7.72,20.59,0,35.94-13.32,43.7l-4.73-12.66c7.69-6.05,12.43-14.49,7.5-27.62
						c-6.78-18.08-25.96-19.27-42.84-12.92c-16.26,6.1-30.82,19.4-23.68,38.45c4.84,12.92,14.47,15.43,23.21,15.47L999.66,408.27z"
						/>
					<path class="st0" d="M1068.83,425.62l-88.82,19.91l-2.94-13.22l88.82-19.87L1068.83,425.62z"/>
					<path class="st0" d="M1012,476.86l-26.81-6.99l-1.15-13.34l93.45,24.13l1.45,16.67l-87.78,41.27l-1.26-14.28l25.19-11.85
						L1012,476.86z M1026.2,508.19c22.23-10.23,34.4-15.94,41.39-18.59l-0.02-0.13c-8.12-1.53-23.68-5.37-43.89-10.27L1026.2,508.19
						z"/>
					<path class="st0" d="M1068.4,559.99l1.62-28.95l11.38,0.64l-4.01,71.45l-11.38-0.64l1.62-28.99l-79.29-4.43l0.77-13.51
						L1068.4,559.99z"/>
					<path class="st0" d="M1071.58,636.6l-89.76-15.26l2.26-13.34l89.76,15.26L1071.58,636.6z"/>
					<path class="st0" d="M971.82,663.45l96.69-4.6l-4.26,13.85l-47.36,1.66c-13.98,0.47-27.67,0.85-36.38,0.3l-0.09,0.26
						c6.76,4.05,18.22,12.66,29.39,21.06l38.37,28.78l-4.09,13.3l-76.95-59.34L971.82,663.45z"/>
					<path class="st0" d="M973.74,734.13l-19.2-19.99l5.99-11.98l67.04,69.49l-7.46,14.92l-96.43-10.7l6.42-12.83l27.67,3.07
						L973.74,734.13z M969.46,768.28c24.3,2.9,37.69,4.39,45,5.8l0.06-0.13c-6.14-5.54-17.39-16.97-32.04-31.72L969.46,768.28z"/>
					<path class="st0" d="M961.89,875.71l-71.7-55.97l8.29-10.61l71.73,55.97L961.89,875.71z"/>
					<path class="st0" d="M848.26,916.8c11.32,12.19,22.91,24.94,29.24,32.31l0.38-0.34c-7.65-14.03-23.13-50.73-35.19-78.57
						l8.74-8.14c21.68,12.06,60.66,33.21,74.56,42.16l0.32-0.3c-7.69-7.2-21.51-21.57-32.14-33l-24.24-26.05l9.23-8.61l61.98,66.63
						l-14.75,13.73c-25.77-13.47-58.34-31.21-68.72-37.9l-0.15,0.17c4.8,8.31,20.76,46,31.57,72.43l-14.3,13.3l-61.98-66.59
						l9.61-8.99L848.26,916.8z"/>
					<path class="st0" d="M844.29,985.57l-30.01,18.25c-15.39,9.34-31.12,7.12-39.8-7.16c-9.38-15.47-2.96-30.31,12.26-39.52
						l17.82-10.83l-19.06-31.42l11.6-7.03L844.29,985.57z M810.38,955.85l-17.03,10.32c-10.1,6.14-12.55,14.2-7.2,23.02
						c5.58,9.21,14.6,9.76,23.34,4.43l17.41-10.57L810.38,955.85z"/>
					<path class="st0" d="M748.1,1037.19l-18.89-51.16c-7.18-19.4-19.67-20.8-30.25-16.92c-12.34,4.56-18.74,13.56-11.74,32.44
						l18.89,51.16l-12.68,4.69l-18.67-50.47c-10.3-27.92,2.41-41.52,20.63-48.26c18.01-6.65,36.73-4.01,46.55,22.59l18.93,51.2
						L748.1,1037.19z"/>
					<path class="st0" d="M660.3,1065.88l-13.32,2.43l-14.15-78.48l-46.42,8.36l-0.26-11.6l57.96-10.44L660.3,1065.88z"/>
					<path class="st0" d="M566.92,1012.85c-2.56-10.57-9.95-15.99-22.66-15.82c-13.51,0.21-18.84,6.48-18.71,14.75
						c0.13,8.78,4.69,13.47,22.51,17.48c22.19,4.99,29.5,12.58,29.71,25.28c0.21,13.98-9.98,25.11-30.54,25.45
						c-22.19,0.34-31.44-12.15-32.87-24.38l13.73-0.21c1.62,7.63,6.42,14.11,19.42,13.9c10.53-0.13,16.41-4.9,16.28-13.17
						c-0.13-8.14-5.07-11.3-20.87-14.84c-26.17-5.93-31.16-15.9-31.33-27.84c-0.23-15.05,10.81-26.73,33.42-27.07
						c22.98-0.34,33.46,11.81,35.64,26.26L566.92,1012.85z"/>
					<path class="st0" d="M479.51,1010.29l13.39-24.21l13.22,2.17l-46.49,84.54l-16.48-2.73l-18.25-95.19l14.13,2.3l5.22,27.33
						L479.51,1010.29z M445.66,1016.3c4.39,24.04,6.93,37.26,7.74,44.68h0.13c3.5-7.46,11.08-21.61,20.85-39.94L445.66,1016.3z"/>
					<path class="st0" d="M383.8,1056.93l-31.06-11.64c-24.09-9.04-34.17-31.42-24.66-56.78c9.42-25.11,32.08-37.56,57.04-28.18
						l30.61,11.47L383.8,1056.93z M399.13,977.64l-17.09-6.39c-19.33-7.25-33.66,3.28-40.69,22.04
						c-6.1,16.24-3.41,34.36,16.65,41.91l17.14,6.44L399.13,977.64z"/>
					<path class="st0" d="M308.58,954.4l21.46-17.48l11.45,6.95l-74.62,61.05l-14.28-8.65l18.57-95.11l12.26,7.46l-5.35,27.24
						L308.58,954.4z M274.97,947.37c-4.9,23.96-7.48,37.13-9.46,44.29l0.11,0.09c6.03-5.67,18.31-15.94,34.21-29.29L274.97,947.37z"
						/>
					<path class="st0" d="M175.7,938.93l-24.66-25.02c-12.64-12.79-14.09-28.65-2.2-40.37c12.9-12.7,28.8-9.89,41.29,2.81
						l14.66,14.88l26.15-25.79l9.53,9.68L175.7,938.93z M196.83,899.07l-13.98-14.2c-8.29-8.4-16.69-8.95-24.04-1.71
						c-7.67,7.55-6.14,16.46,1.04,23.74l14.3,14.49L196.83,899.07z"/>
					<path class="st0" d="M103.21,776.94c20.91-13.9,47.32-14.32,63.31,9.72c15.03,22.64,6.03,46.55-15.73,61
						c-21.76,14.49-47.62,13.04-62.94-10.02C73.54,816.11,80.53,792.03,103.21,776.94z M142.67,836.15
						c16.09-10.7,24.53-27.88,14.05-43.65c-11.32-17.05-29.84-14.37-45.55-3.92C95.2,799.19,86.88,815.6,97.65,831.8
						C108.63,848.34,126.74,846.72,142.67,836.15z"/>
					<path class="st0" d="M94.3,741.17l36.45-15.01l5.07,12.36l-84.19,34.7l-13.88-33.72c-7.2-17.48-1.53-30.74,11.57-36.15
						c11.02-4.56,20.12-0.98,25.58,5.8c-0.83-7.12,1.66-15.22,16.37-21.27l3.71-1.53c5.78-2.39,13.02-5.12,16.07-7.97l4.99,12.06
						c-3.03,3.03-9.55,5.67-17.65,9.04l-1.68,0.68c-11.47,4.73-15.2,9.98-9.1,24.81L94.3,741.17z M83.94,745.43l-7.31-17.69
						c-5.07-12.32-11.89-15.73-20.91-12.02c-8.55,3.5-11.08,11.08-6.59,22.04l7.78,18.84L83.94,745.43z"/>
					<path class="st0" d="M9.62,648.41l-2.13-13.3l78.48-12.53l-7.42-46.42l11.55-0.04l9.27,57.98L9.62,648.41z"/>
					<path class="st0" d="M63.39,546.99l25.96,9.8l-0.28,13.43L-1.4,536.2l0.34-16.75l91.83-31.72l-0.3,14.37l-26.35,9.08
						L63.39,546.99z M52.61,514.25c-23.23,7.8-35.98,12.19-43.18,14.07l-0.02,0.13c7.93,2.39,23.02,7.89,42.61,14.96L52.61,514.25z"
						/>
					<path class="st0" d="M13.54,409.89l52.52,15.01c19.93,5.67,28.48-3.58,31.59-14.41c3.62-12.7,0.13-23.19-19.27-28.73
						l-52.52-15.01l3.73-13.04l51.86,14.84c28.65,8.18,32.12,26.52,26.77,45.23c-5.29,18.5-18.52,32.06-45.85,24.26L9.79,423.02
						L13.54,409.89z"/>
					<path class="st0" d="M122.48,368.96l-18.46-7.84l5.33-12.49l18.46,7.84L122.48,368.96z"/>
					<path class="st0" d="M115.34,322.03c10.38,3.15,18.78-0.47,25.05-11.47c6.65-11.77,3.94-19.48-3.22-23.57
						c-7.65-4.31-13.98-2.77-26.43,10.53c-15.52,16.58-25.73,19.06-36.75,12.79c-12.15-6.91-16.58-21.27-6.46-39.13
						c10.91-19.27,26.35-20.89,37.58-15.94l-6.76,11.89c-7.38-2.47-15.37-1.58-21.78,9.68c-5.16,9.12-4.05,16.63,3.13,20.68
						c7.06,4.01,12.28,1.36,23.3-10.44c18.33-19.52,29.44-18.76,39.77-12.92c13.09,7.42,17.54,22.85,6.39,42.46
						c-11.3,19.95-27.05,22.85-40.58,17.39L115.34,322.03z"/>
					<path class="st0" d="M171.95,278.5l-16.22-11.85l8.01-10.96l16.22,11.81L171.95,278.5z"/>
					<path class="st0" d="M241.08,150.7c-11-12.45-22.23-25.45-28.35-32.95l-0.38,0.34c7.27,14.2,21.76,51.16,33.1,79.21l-8.91,7.89
						c-21.32-12.58-59.66-34.62-73.3-43.91l-0.34,0.26c7.5,7.42,20.93,22.13,31.23,33.76l23.53,26.6l-9.42,8.36l-60.15-68.04
						l15.05-13.3c25.36,14.07,57.4,32.57,67.59,39.52l0.15-0.13c-4.58-8.44-19.55-46.42-29.65-73.07l14.6-12.92l60.15,68l-9.83,8.7
						L241.08,150.7z"/>
					<path class="st0" d="M321.12,96.09l-38.84,22.38l15.18,26.35l42.69-24.6l4.22,10.74l-52.63,30.31l-45.34-78.61l52.07-30.05
						l5.71,9.89l-40.67,23.45l13.07,22.68L315.4,86.2L321.12,96.09z"/>
					<path class="st0" d="M362.59,95.49l0.04,27.67l-12.6,4.48l-0.32-96.34l15.71-5.63l62.05,74.35l-13.47,4.82l-17.8-21.36
						L362.59,95.49z M389.26,73.84c-15.5-18.89-24.09-29.2-28.39-35.26l-0.13,0.04c0.58,8.23,0.79,24.21,1.15,44.97L389.26,73.84z"
						/>
					<path class="st0" d="M431.02,19.44l-28.52,5.63l-2.22-11.21L470.64,0l2.22,11.21l-28.52,5.63l15.37,78.06l-13.32,2.6
						L431.02,19.44z"/>
				</g>
			</g>
			<g>
				<g>
					<polygon class="st1" points="567.86,26.54 544.92,26.54 535.84,5.69 526.15,26.54 504.26,26.54 520.73,40.3 512.18,65.52 
						535.74,51.35 559.31,65.74 550.13,40.73 					"/>
				</g>
			</g>
		</g>
	</g>
</g>
</svg>
