<?xml version="1.0" encoding="utf-8"?>
<!-- Generator: Adobe Illustrator 24.2.0, SVG Export Plug-In . SVG Version: 6.00 Build 0)  -->
<svg version="1.1" xmlns="http://www.w3.org/2000/svg" xmlns:xlink="http://www.w3.org/1999/xlink" x="0px" y="0px" width="816.5px"
	 height="100px" viewBox="0 0 816.5 100" style="enable-background:new 0 0 816.5 100;" xml:space="preserve">
<style type="text/css">
	.st0{opacity:0;fill:#FF2929;}
	.st1{fill:#1E67D3;}
	.st2{fill:#FFFAF5;}
	.st3{fill:#F4E84D;}
	.st4{opacity:0;}
	.st5{fill:#FF2929;}
</style>
<g id="Calque_1">
	<g>
		<rect class="st0" width="116.6" height="100"/>
		<g>
			<path class="st1" d="M40,54.3c-7.7,1.2-15.5,2.4-23.2,3.6c-0.6,0.1-0.4,1.1,0.3,1c7.7-1.2,15.5-2.4,23.2-3.6
				C40.9,55.2,40.6,54.2,40,54.3z"/>
			<path class="st1" d="M45.8,65c-5.1,4.6-10.3,9-15.5,13.4c-0.5,0.4,0.2,1.1,0.7,0.7c5.3-4.3,10.4-8.8,15.5-13.4
				C47,65.3,46.3,64.6,45.8,65z"/>
			<path class="st1" d="M50.4,70.7c-0.9,1.5-1.7,2.9-2.6,4.4c-0.3,0.6,0.5,1.1,0.9,0.5c0.9-1.5,1.7-2.9,2.6-4.4
				C51.6,70.7,50.7,70.2,50.4,70.7z"/>
			<path class="st1" d="M55.5,72.4c-0.3,0-0.5,0.2-0.5,0.5c-0.1,0.9-0.2,1.8-0.2,2.6c0,0.3,0.2,0.5,0.5,0.5c0.3,0,0.5-0.2,0.5-0.5
				c0.1-0.9,0.2-1.8,0.2-2.6C56,72.6,55.7,72.4,55.5,72.4z"/>
			<path class="st1" d="M62.7,72.2c-0.1-0.6-1.1-0.4-1,0.3c0.9,5.9,1.8,11.7,2.6,17.6c0.1,0.6,1.1,0.4,1-0.3
				C64.5,83.9,63.6,78.1,62.7,72.2z"/>
			<path class="st1" d="M71.5,78.9l-3.6-8.2c-0.3-0.6-1.1-0.1-0.9,0.5l3.6,8.2C70.9,80,71.7,79.5,71.5,78.9z"/>
			<path class="st1" d="M74.8,72.7c-0.8-1.3-1.6-2.5-2.3-3.8c-0.3-0.5-1.2,0-0.9,0.5c0.8,1.3,1.6,2.5,2.3,3.8
				C74.2,73.8,75.1,73.3,74.8,72.7z"/>
			<path class="st1" d="M87.5,74.9c-3.4-2.7-6.7-5.6-10-8.5c-0.5-0.4-1.2,0.3-0.7,0.7c3.2,3,6.5,5.8,10,8.5
				C87.3,76,88,75.3,87.5,74.9z"/>
			<path class="st1" d="M85.2,63.1c-1.1-0.7-2.3-1.4-3.4-2.1c-0.2-0.1-0.5-0.1-0.7,0.2c-0.1,0.2-0.1,0.5,0.2,0.7
				c1.1,0.7,2.3,1.4,3.4,2.1c0.2,0.1,0.5,0.1,0.7-0.2C85.5,63.6,85.4,63.3,85.2,63.1z"/>
			<path class="st1" d="M98.9,59.9c-3.2-0.9-6.4-1.8-9.5-2.8c-3.1-0.9-6.1-1.9-9.3-2.5c-0.6-0.1-0.9,0.9-0.3,1
				c3.1,0.6,6.2,1.6,9.3,2.5c3.2,0.9,6.4,1.8,9.5,2.8C99.3,61.1,99.5,60.1,98.9,59.9z"/>
			<path class="st1" d="M86.2,50.5c-1.1,0-2.1,0-3.2,0c-0.3,0-0.5,0.2-0.5,0.5c0,0.3,0.2,0.5,0.5,0.5c1.1,0,2.1,0,3.2,0
				c0.3,0,0.5-0.2,0.5-0.5C86.7,50.7,86.5,50.5,86.2,50.5z"/>
			<path class="st1" d="M83.6,41.2c-0.2-0.2-0.5-0.2-0.7,0c-1,0.8-1.9,1.6-2.9,2.4c-0.2,0.2-0.2,0.5,0,0.7c0.2,0.2,0.5,0.2,0.7,0
				c1-0.8,1.9-1.6,2.9-2.4C83.8,41.7,83.8,41.3,83.6,41.2z"/>
			<path class="st1" d="M83.6,34.8c-2.2,1.9-4.4,3.8-6.6,5.7c-0.5,0.4,0.2,1.1,0.7,0.7c2.2-1.9,4.4-3.8,6.6-5.7
				C84.8,35.1,84.1,34.4,83.6,34.8z"/>
			<path class="st1" d="M97.6,39.6c-4.5,2.1-8.9,4.3-13.4,6.4c-0.6,0.3-0.1,1.1,0.5,0.9c4.5-2.1,8.9-4.3,13.4-6.4
				C98.7,40.2,98.2,39.3,97.6,39.6z"/>
			<path class="st1" d="M75.1,30.7c-0.2-0.2-0.5-0.2-0.7,0c-1.3,1.5-2.5,3.1-3.8,4.6c-0.2,0.2-0.2,0.5,0,0.7c0.2,0.2,0.5,0.2,0.7,0
				c1.3-1.5,2.5-3.1,3.8-4.6C75.3,31.2,75.3,30.9,75.1,30.7z"/>
			<path class="st1" d="M75.9,11.8c-3.3,7.1-6.5,14.2-9.8,21.3c-0.3,0.6,0.6,1.1,0.9,0.5c3.3-7.1,6.5-14.2,9.8-21.3
				C77,11.7,76.2,11.2,75.9,11.8z"/>
			<path class="st1" d="M58.7,19c-0.5,3.6-1,7.2-1.5,10.8c-0.1,0.6,0.9,0.9,1,0.3c0.5-3.6,1-7.2,1.5-10.8
				C59.7,18.7,58.8,18.4,58.7,19z"/>
			<path class="st1" d="M52.5,29.3c-0.6-1.6-1.2-3.2-1.8-4.9c-0.1-0.3-0.3-0.4-0.6-0.3c-0.2,0.1-0.4,0.4-0.3,0.6
				c0.6,1.6,1.2,3.2,1.8,4.9c0.1,0.3,0.3,0.4,0.6,0.3C52.4,29.8,52.6,29.5,52.5,29.3z"/>
			<path class="st1" d="M47.2,30.5c-2.4-4-4.7-8-6.8-12.2c-0.3-0.6-1.2-0.1-0.9,0.5C41.6,23,43.9,27,46.3,31
				C46.6,31.5,47.5,31,47.2,30.5z"/>
			<path class="st1" d="M41.6,39.6c-2.1-1.3-4.3-2.5-6.4-3.8c-0.6-0.3-1.1,0.5-0.5,0.9c2.1,1.3,4.3,2.5,6.4,3.8
				C41.6,40.8,42.1,40,41.6,39.6z"/>
			<path class="st1" d="M39.4,45.8c-1.4,0-2.9,0-4.3,0c-0.6,0-0.6,1,0,1c1.4,0,2.9,0,4.3,0C40,46.8,40,45.8,39.4,45.8z"/>
			<path class="st1" d="M39.8,49.6c-4,0.2-8,0.5-12,0.7c-0.6,0-0.6,1,0,1c4-0.2,8-0.5,12-0.7C40.4,50.6,40.4,49.6,39.8,49.6z"/>
			<path class="st2" d="M35.9,41.5c0.2-0.4,0.3-1,0.1-1.4c-0.2-0.5-0.6-0.9-1.1-1.1c-0.4-0.2-1-0.2-1.4,0c-0.5,0.2-0.8,0.5-1.1,0.9
				c-0.7,0-1.3,0.4-1.7,0.9c-0.4,0.5-0.5,1.2-0.3,1.8c-0.7,0.6-1.2,1.4-1,2.3c0.1,0.5,0.3,0.9,0.7,1.2c0.4,0.3,1,0.4,1.6,0.3
				c0.5-0.1,0.9-0.4,1.3-0.7c0.4,0.1,0.8,0.1,1.1,0.1c0.6-0.1,1.1-0.4,1.5-0.9c0.6-0.9,0.4-1.9-0.2-2.7C35.5,42,35.7,41.8,35.9,41.5
				z"/>
			<path class="st2" d="M46.3,62.4c0.5-0.9,0.7-1.9,0.4-2.9c-0.2-0.9-0.9-1.7-1.7-2.2c0.3-1.4,0.1-3.1-1.1-4.1c-1.1-1-2.9-1-4,0
				c-0.4,0.3-0.8,0.6-1,1c-0.5,0.9-0.5,2.1,0,3c-0.9,0.8-1.4,2-1.2,3.2c0.2,1.2,1,2.2,2.1,2.7c-0.3,1.9,1.4,3.7,3.1,4.2
				c1.7,0.6,3.8-0.5,4.1-2.4C47.1,64,46.9,63.1,46.3,62.4z"/>
			<path class="st1" d="M42.3,60.1c-1.4,0.8-2.8,1.5-4.2,2.3c-0.6,0.3-0.1,1.2,0.5,0.9c1.4-0.8,2.8-1.5,4.2-2.3
				C43.3,60.6,42.8,59.8,42.3,60.1z"/>
			<path class="st2" d="M58.9,81c-0.4,0.7-1.1,1.1-1.9,1.2c0,0,0,0,0,0c-0.8,1-2.3,1.4-3.6,1c-1.2-0.4-2-1.6-2.1-2.8
				c-0.7-0.6-1.2-1.3-1.2-2.2c0-0.8,0.4-1.6,1.1-1.9c0.1-1.3,1.4-2.4,2.7-2.2c1.4,0.2,2.4,1.3,2.6,2.6c0.6,0.1,1.2,0.3,1.7,0.7
				C59.3,78.3,59.7,79.9,58.9,81z"/>
			<path class="st2" d="M83,66.3c-0.3,0.8-0.9,1.4-1.7,1.7c-0.6,0.2-1.2,0.2-1.8,0.1c-0.3,0.9-0.9,1.7-1.7,2.1
				c-1.1,0.6-2.5,0.5-3.6-0.1c-0.3,0.4-0.6,0.8-1,1.1c-1.5,0.9-3.5-0.1-3.9-1.8c-0.4-1.7,0.7-3.3,2.3-3.9c-0.2-1.1,0.2-2.3,0.9-3.2
				c0.8-0.9,2-1.3,3.1-1.2c0.2-0.9,0.6-1.8,1.2-2.4c1.4-1.3,3.7-1.6,5-0.1c0.6,0.7,0.9,1.5,0.7,2.5c-0.1,0.4-0.3,0.9-0.6,1.2
				C83,63.4,83.6,64.9,83,66.3z"/>
			<path class="st2" d="M97.2,66c-0.3,0.7-0.8,1.2-1.5,1.3c-1,0.3-1.9-0.1-2.6-0.8c-0.1,0-0.1,0-0.2,0c-0.5,0.1-1,0.1-1.5,0
				c-0.4-0.1-0.7-0.2-1-0.5c-0.3-0.3-0.5-0.7-0.5-1.1c0-0.4,0.1-0.9,0.4-1.2c0.2-0.2,0.4-0.3,0.6-0.4c0.1-1,1.1-1.8,2.2-1.8
				c1.1,0,2,0.8,2.3,1.7c0.6,0,1.2,0.3,1.5,0.8C97.4,64.7,97.4,65.4,97.2,66z"/>
			<path class="st2" d="M87.1,43.2c-0.5-1.2-1.8-2-3.1-1.8c-0.4-0.7-1.1-1.2-2-1.3c-0.9-0.1-1.7,0.3-2.2,1c-0.5,0-1,0-1.4,0.1
				c-0.5,0.2-0.9,0.6-1,1.2c-0.1,0.5,0,1.1,0.3,1.5c0.2,0.3,0.5,0.6,0.8,0.9c-0.1,0.3-0.2,0.7-0.1,1.1c0.1,0.5,0.4,1,0.8,1.3
				c0.5,0.5,1.2,0.8,2,0.8c0.1,1.4,1,2.6,2.4,3c1.7,0.4,3.5-0.9,3.6-2.7c0-0.7-0.2-1.4-0.7-2C87.2,45.5,87.6,44.3,87.1,43.2z
				 M78.5,42.3C78.5,42.3,78.5,42.3,78.5,42.3L78.5,42.3C78.5,42.3,78.5,42.3,78.5,42.3z"/>
			<path class="st2" d="M83,32.3c-1.1,0.2-2.1-0.3-2.7-1.2c-0.8,0.2-1.5,0.2-2.3-0.1c-0.7-0.3-1.2-0.9-1.4-1.6
				c-0.4-0.1-0.8-0.2-1.2-0.4c-0.4-0.3-0.8-0.6-1-1.1c-0.3-0.5-0.4-1.2-0.2-1.7c0.2-0.5,0.6-0.9,1.1-1.1c0.4-0.2,0.9-0.2,1.4-0.2
				c0.4-0.7,1.2-1.2,2.1-1.1c0.8,0.1,1.6,0.6,1.9,1.4c0.2-0.1,0.5-0.1,0.8-0.1c0.8,0,1.6,0.5,2,1.2c0.3,0.5,0.4,1.2,0.3,1.7
				c0.5,0.2,0.9,0.6,1.2,1.1C85.4,30.4,84.5,32,83,32.3z"/>
			<path class="st2" d="M52.1,32.9c-0.9,0.7-2.1,0.8-3.1,0.6c-0.3,0.7-0.9,1.3-1.5,1.8c-1.1,0.8-3,1.2-4.1,0.2
				c-0.6-0.5-0.8-1.3-0.7-2.1c0.1-0.7,0.5-1.2,1-1.7c-0.2-0.9,0-2,0.6-2.7c0.6-0.7,1.5-1,2.5-1c0.4-0.7,1.1-1.3,2-1.3
				c0.9-0.1,1.8,0.4,2.2,1.2c0.7,0,1.4,0.4,1.8,1C53.8,30.1,53.3,31.9,52.1,32.9z"/>
			<path class="st3" d="M46.9,71.2C46.9,71.2,46.9,71.2,46.9,71.2c-0.1-0.1-0.1-0.1-0.2-0.2c-0.3-0.1-0.5,0-0.7,0.2
				c-0.3,0.4-0.8,0.8-1.4,0.9c-0.6,0.2-1.2,0.1-1.8-0.1c-0.2-0.1-0.5-0.1-0.7,0.2c0,0.1-0.1,0.2-0.1,0.3c-0.1,0.2,0,0.4,0.2,0.6
				c0,0,0,0,0,0c0,0,0.1,0,0.1,0.1c0.1,0,0.1,0.1,0.1,0.2c0.1,0.1,0.1,0.2,0.2,0.3c0.1,0.1,0.1,0.2,0.1,0.3c0,0.2,0.1,0.3,0.1,0.4
				c0,0.3,0,0.5-0.1,0.8c0,0,0,0,0,0c0,0,0,0.1,0,0.1c0,0.1-0.1,0.1-0.1,0.2c0,0.1,0,0.1-0.1,0.1c-0.1,0.1-0.1,0.1-0.2,0.2
				c-0.2,0.2-0.2,0.4-0.1,0.6c0,0.1,0.1,0.2,0.2,0.3c0.2,0.1,0.5,0,0.7-0.2c0.3-0.4,0.7-0.7,1.2-0.9c0.5-0.2,1.1-0.1,1.6,0.2
				c0.1,0,0.2,0.1,0.3,0.1c0,0,0,0,0,0c0,0,0.1,0,0.1,0c0,0,0,0,0,0c0,0,0,0,0,0c0,0,0.1,0,0.1-0.1c0,0,0,0,0.1-0.1c0,0,0,0,0,0
				c0,0,0,0,0-0.1c0.1-0.1,0.1-0.3,0-0.5c-0.7-1-0.6-2.2,0.1-3.1C47.1,71.7,47.1,71.4,46.9,71.2z"/>
			<g>
				<path class="st3" d="M65.9,25.3c0-0.2-0.2-0.4-0.4-0.5c0,0-0.1,0-0.1-0.1c0,0,0,0,0,0c0,0-0.1-0.1-0.1-0.1c0,0-0.1-0.1-0.1-0.1
					c0,0,0,0-0.1-0.1c-0.1-0.1-0.1-0.2-0.2-0.2c0,0,0-0.1-0.1-0.1c0,0,0,0,0,0c0,0,0,0,0,0c0,0,0,0,0,0c0,0,0,0,0,0c0,0,0,0,0,0
					c0-0.1-0.1-0.2-0.1-0.3c0,0,0-0.1,0-0.2c0,0,0,0,0-0.1c0-0.1,0-0.2,0-0.3c0-0.3-0.2-0.5-0.5-0.5c0,0-0.1,0-0.1,0c0,0,0,0-0.1,0
					c0,0,0,0-0.1,0c-0.2,0.1-0.3,0.2-0.3,0.3c0,0.1,0,0.2-0.1,0.3c0,0,0,0,0,0.1c0,0,0-0.1,0,0c0,0,0,0.1-0.1,0.1
					c0,0-0.1,0.1-0.1,0.1c0,0,0,0,0,0c-0.1,0.1-0.1,0.1-0.2,0.2c0,0,0,0,0,0c0,0-0.1,0.1-0.1,0.1c0,0-0.1,0.1-0.1,0.1c0,0,0,0-0.1,0
					c-0.1,0-0.2,0.1-0.3,0.1c0,0-0.1,0-0.1,0c0,0-0.1,0-0.1,0c0,0,0,0,0,0c0,0-0.1,0-0.1,0c0,0,0,0,0,0c-0.1,0.1-0.3,0.2-0.3,0.3
					c-0.1,0.3,0.1,0.5,0.3,0.6c0,0,0,0,0.1,0c0,0,0.1,0,0.1,0.1c0,0,0.1,0.1,0.1,0.1c0,0,0,0,0,0c0,0,0,0,0,0
					c0.1,0.1,0.2,0.1,0.2,0.2c0,0,0,0,0,0c0,0,0,0,0,0.1c0,0,0.1,0.1,0.1,0.1c0,0,0.1,0.1,0.1,0.1c0-0.1,0-0.1,0,0c0,0,0,0,0,0
					c0,0,0,0,0,0.1c0,0.1,0,0.1,0,0.2c0,0,0,0.1,0,0.1c0,0,0,0,0,0c0,0.1,0,0.2,0,0.3c0,0,0,0,0,0c0,0,0,0.1,0,0.1
					c0,0.1,0,0.1-0.1,0.2c-0.1,0.2,0.1,0.6,0.3,0.6c0.2,0.1,0.4,0,0.5-0.2c0.1-0.1,0.1-0.1,0.1-0.2c0-0.1,0-0.2,0.1-0.3
					c0,0,0-0.1,0-0.1c0,0,0.1-0.1,0.1-0.1c0,0,0.1-0.1,0.1-0.1c0,0,0-0.1,0.1-0.1c0,0,0,0,0,0c0,0,0,0,0.1-0.1c0,0,0.1-0.1,0.1-0.1
					c0,0,0.1-0.1,0.1-0.1c0,0,0,0,0,0c0,0,0,0,0,0c0,0,0,0,0.1,0c0.1-0.1,0.2-0.1,0.3-0.2c0,0,0,0,0,0c0,0,0,0,0.1,0
					c0.1,0,0.1,0,0.2-0.1c0,0,0.1,0,0.1,0c0.2,0,0.4,0,0.5-0.2c0,0,0,0,0,0C65.9,25.5,65.9,25.4,65.9,25.3z"/>
				<path class="st3" d="M64.8,24.1C64.8,24.1,64.8,24,64.8,24.1C64.8,24,64.8,24,64.8,24.1C64.8,24,64.8,24,64.8,24.1z"/>
			</g>
			<path class="st3" d="M94.4,54.1c0-0.3-0.2-0.5-0.5-0.5c0,0,0,0,0,0c0,0,0,0,0,0c0,0-0.1,0-0.1,0c-0.1,0-0.2,0-0.2-0.1
				c-0.1,0-0.1,0-0.2-0.1c0,0,0,0,0,0c0,0,0,0,0,0c0,0-0.1,0-0.1,0c-0.1-0.1-0.3-0.2-0.4-0.2c0,0,0,0,0,0c0,0-0.1,0-0.1-0.1
				c-0.1-0.1-0.1-0.1-0.2-0.2c0,0,0-0.1-0.1-0.1c0,0,0,0,0,0c0,0,0,0,0,0c0-0.1-0.1-0.1-0.1-0.2c0-0.1-0.1-0.1-0.1-0.2
				c0,0,0-0.1,0-0.1c0,0,0,0,0,0C92.1,52.1,92,52,92,51.8c0,0,0,0,0-0.1c0,0,0-0.1,0-0.1c0,0,0-0.1,0-0.1c0,0,0,0,0,0
				c0.1-0.2-0.1-0.5-0.2-0.6c-0.1-0.1-0.2-0.1-0.3-0.1c-0.3,0-0.5,0.2-0.5,0.5c-0.1,0.2-0.2,0.3-0.3,0.5c-0.2,0.2-0.4,0.3-0.6,0.4
				c-0.5,0.2-1.2,0.3-1.9,0.4c-0.3,0-0.5,0.2-0.5,0.5c0,0.2,0.1,0.3,0.3,0.4c0.1,0.1,0.2,0.2,0.4,0.2c0,0,0.1,0,0.1,0c0,0,0,0,0,0
				c0,0,0,0,0,0c0.1,0,0.2,0,0.2,0c0.2,0,0.3,0.1,0.4,0.1c0,0,0.1,0,0.1,0c0,0,0.1,0,0.1,0c0.1,0,0.1,0.1,0.2,0.1
				c0.1,0,0.1,0.1,0.2,0.1c0,0,0,0,0,0c0,0,0,0,0,0c0,0,0.1,0.1,0.1,0.1c0.1,0.1,0.2,0.2,0.3,0.3c0,0,0,0,0,0c0,0,0,0,0.1,0.1
				c0,0.1,0.1,0.1,0.1,0.2c0,0.1,0.1,0.1,0.1,0.2c0,0,0,0.1,0.1,0.1c0,0,0,0,0,0c0,0,0,0,0,0c0,0.1,0.1,0.2,0.1,0.3
				c0,0.2,0.1,0.5,0.4,0.5c0.1,0,0.2,0,0.3,0c0,0,0,0,0,0c0,0,0,0,0,0c0,0,0,0,0,0c0.2-0.1,0.3-0.2,0.3-0.4c0-0.1,0.1-0.1,0.1-0.2
				c0-0.1,0.1-0.1,0.1-0.2c0,0,0,0,0.1-0.1c0,0,0,0,0,0c0,0,0,0,0,0c0.1-0.1,0.2-0.2,0.3-0.3c0,0,0,0,0.1-0.1c0,0,0,0,0,0
				c0,0,0,0,0,0c0.1,0,0.1-0.1,0.2-0.1c0.1,0,0.1-0.1,0.2-0.1c0,0,0.1,0,0.1-0.1c0,0,0,0,0,0c0,0,0.1,0,0.1,0c0,0,0.1,0,0.1,0
				c0.1,0,0.1,0,0.2-0.1c0,0,0.1,0,0.1,0c0,0,0,0,0,0c0.1,0,0.1,0,0.2,0c0.1,0,0.3,0,0.4,0C94.1,54.7,94.4,54.4,94.4,54.1
				C94.4,54.1,94.4,54.1,94.4,54.1C94.4,54.1,94.4,54.1,94.4,54.1z"/>
		</g>
	</g>
</g>
<g id="Calque_2">
	<g>
		<rect x="116.6" class="st0" width="116.6" height="100"/>
		<g>
			<path class="st1" d="M150,75.9c-2.1,1.8-4.3,3.6-6.4,5.5c-0.5,0.4,0.2,1.1,0.7,0.7c2.1-1.8,4.3-3.6,6.4-5.5
				C151.2,76.2,150.5,75.4,150,75.9z"/>
			<path class="st1" d="M152.5,63.6c-0.2-0.2-0.4-0.3-0.7-0.2c-1,0.5-1.9,1-2.9,1.5c-0.2,0.1-0.3,0.5-0.2,0.7
				c0.2,0.2,0.4,0.3,0.7,0.2c1-0.5,1.9-1,2.9-1.5C152.6,64.1,152.7,63.8,152.5,63.6z"/>
			<path class="st1" d="M157.9,57.6c-0.1-0.2-0.4-0.4-0.6-0.3c-0.8,0.3-1.7,0.6-2.5,0.9c-0.2,0.1-0.4,0.3-0.3,0.6
				c0.1,0.2,0.4,0.4,0.6,0.3c0.8-0.3,1.7-0.6,2.5-0.9C157.8,58.1,158,57.8,157.9,57.6z"/>
			<path class="st1" d="M164.2,68.2c-0.2-0.2-0.5-0.2-0.7,0c-0.4,0.5-0.9,1.1-1.3,1.6c-0.1,0.1-0.1,0.2-0.1,0.4
				c0,0.1,0.1,0.3,0.1,0.4c0.2,0.2,0.5,0.2,0.7,0l1.3-1.6c0.1-0.1,0.1-0.2,0.1-0.4C164.3,68.4,164.3,68.3,164.2,68.2z"/>
			<path class="st1" d="M163.7,77.4c-0.2-0.1-0.6-0.1-0.7,0.2c-0.4,0.8-0.8,1.5-1.2,2.3c-0.1,0.2-0.1,0.6,0.2,0.7
				c0.2,0.1,0.6,0.1,0.7-0.2l1.2-2.3C164,77.8,163.9,77.5,163.7,77.4z"/>
			<path class="st1" d="M170.9,80.1c-0.2-0.1-0.6,0.1-0.6,0.3c-0.1,0.9-0.3,1.9-0.4,2.8c0,0.3,0.1,0.5,0.3,0.6
				c0.2,0.1,0.6-0.1,0.6-0.3c0.1-0.9,0.3-1.9,0.4-2.8C171.3,80.5,171.2,80.2,170.9,80.1z"/>
			<path class="st1" d="M182.4,73.9c-0.2-0.8-0.4-1.5-0.7-2.3c-0.1-0.3-0.4-0.4-0.6-0.3c-0.3,0.1-0.4,0.3-0.3,0.6
				c0.2,0.8,0.4,1.5,0.7,2.3c0.1,0.3,0.4,0.4,0.6,0.3C182.3,74.5,182.4,74.2,182.4,73.9z"/>
			<path class="st1" d="M189.2,81.4c-0.4-0.8-0.7-1.6-1.1-2.4c-0.1-0.2-0.5-0.3-0.7-0.2c-0.2,0.2-0.3,0.4-0.2,0.7l1.1,2.4
				c0.1,0.2,0.5,0.3,0.7,0.2C189.3,82,189.3,81.7,189.2,81.4z"/>
			<path class="st1" d="M181.5,86.6c-0.1-0.6-1.1-0.4-1,0.2c0.4,2.4,0.8,4.9,1.2,7.3c0.1,0.6,1.1,0.4,1-0.2
				C182.3,91.5,181.9,89,181.5,86.6z"/>
			<path class="st1" d="M193.6,76c-0.2-0.3-0.5-0.7-0.7-1c-0.1-0.1-0.2-0.2-0.3-0.2c-0.1,0-0.3,0-0.4,0.1c-0.1,0.1-0.2,0.2-0.2,0.3
				c0,0.1,0,0.3,0.1,0.4c0.2,0.3,0.5,0.7,0.7,1c0.1,0.1,0.2,0.2,0.3,0.2c0.1,0,0.3,0,0.4-0.1c0.1-0.1,0.2-0.2,0.2-0.3
				C193.7,76.3,193.7,76.1,193.6,76z"/>
			<path class="st1" d="M206.8,76.9c-1.7-1.2-3.3-2.4-4.9-3.7c-0.5-0.4-1.2,0.3-0.7,0.7c1.6,1.4,3.3,2.7,5.1,3.9
				c0.2,0.2,0.6,0,0.7-0.2C207.2,77.3,207.1,77.1,206.8,76.9z"/>
			<path class="st1" d="M204.3,64.4c-1.3-0.6-2.5-1.3-3.8-1.9c-0.2-0.1-0.5-0.1-0.7,0.2c-0.1,0.2-0.1,0.6,0.2,0.7
				c1.3,0.6,2.5,1.3,3.8,1.9c0.2,0.1,0.5,0.1,0.7-0.2C204.6,64.9,204.6,64.6,204.3,64.4z"/>
			<path class="st1" d="M219.7,61.1c-2.8-0.9-5.7-1.7-8.6-2.5c-0.6-0.2-0.9,0.8-0.3,1c2.9,0.8,5.8,1.5,8.6,2.5
				C220,62.3,220.3,61.3,219.7,61.1z"/>
			<path class="st1" d="M206.8,50.4c-0.8,0-1.6,0-2.4,0.1c-0.3,0-0.5,0.2-0.5,0.5c0,0.3,0.2,0.5,0.5,0.5c0.8,0,1.6,0,2.4-0.1
				c0.3,0,0.5-0.2,0.5-0.5C207.3,50.6,207.1,50.4,206.8,50.4z"/>
			<path class="st1" d="M217.9,38.4c-0.1-0.2-0.4-0.3-0.7-0.2c-1.9,0.9-3.8,1.8-5.7,2.7c-0.2,0.1-0.3,0.5-0.2,0.7
				c0.1,0.2,0.4,0.3,0.7,0.2c1.9-0.9,3.8-1.8,5.7-2.7C217.9,39,218,38.6,217.9,38.4z"/>
			<path class="st1" d="M204.1,38.1c-0.1-0.2-0.5-0.3-0.7-0.2c-0.6,0.5-1.3,1-1.9,1.5c-0.1,0.1-0.2,0.2-0.2,0.3c0,0.1,0,0.3,0.1,0.4
				c0.1,0.2,0.5,0.3,0.7,0.2c0.6-0.5,1.3-1,1.9-1.5c0.1-0.1,0.2-0.2,0.2-0.3C204.2,38.3,204.2,38.2,204.1,38.1z"/>
			<path class="st1" d="M203.1,32.6c-0.2-0.2-0.5-0.2-0.7,0c-0.7,0.7-1.4,1.3-2.1,2c-0.2,0.2-0.2,0.5,0,0.7c0.2,0.2,0.5,0.2,0.7,0
				c0.7-0.7,1.4-1.3,2.1-2C203.3,33.1,203.3,32.8,203.1,32.6z"/>
			<path class="st1" d="M192.9,35.8c-0.2-0.2-0.5-0.2-0.7,0c-0.7,0.6-1.4,1.2-2.1,1.8c-0.2,0.2-0.2,0.5,0,0.7c0.2,0.2,0.5,0.2,0.7,0
				c0.7-0.6,1.4-1.2,2.1-1.8C193.1,36.3,193.1,36,192.9,35.8z"/>
			<path class="st1" d="M196.2,24.8c-0.2-0.2-0.5-0.2-0.7,0c-0.7,0.8-1.3,1.5-2,2.3c-0.2,0.2-0.2,0.5,0,0.7c0.2,0.2,0.5,0.2,0.7,0
				c0.7-0.8,1.3-1.5,2-2.3C196.3,25.3,196.4,25,196.2,24.8z"/>
			<path class="st1" d="M176.6,13.9c-0.2-0.1-0.6,0.1-0.6,0.3c-0.4,2.6-0.7,5.2-1.1,7.7c0,0.3,0.1,0.5,0.3,0.6
				c0.2,0.1,0.6-0.1,0.6-0.3c0.4-2.6,0.7-5.2,1.1-7.7C177,14.3,176.9,14,176.6,13.9z"/>
			<path class="st1" d="M194.1,8c-1.3,3-2.6,6-4,8.9c-0.3,0.6,0.6,1.1,0.9,0.5c1.3-3,2.6-6,4-8.9C195.3,7.9,194.4,7.4,194.1,8z"/>
			<path class="st1" d="M167.7,25.3c-0.4-1-0.7-1.9-1.1-2.9c-0.1-0.2-0.3-0.4-0.6-0.3c-0.2,0.1-0.4,0.4-0.3,0.6
				c0.4,1,0.7,1.9,1.1,2.9c0.1,0.2,0.3,0.4,0.6,0.3C167.5,25.8,167.8,25.5,167.7,25.3z"/>
			<path class="st1" d="M158.6,21.5c-1.5-2.8-2.9-5.6-4.4-8.4c-0.3-0.6-1.2-0.1-0.9,0.5c1.5,2.8,2.9,5.6,4.4,8.4
				C158,22.6,158.9,22.1,158.6,21.5z"/>
			<path class="st1" d="M152.9,36.5c-0.8-0.5-1.7-1-2.5-1.5c-0.2-0.1-0.6-0.1-0.7,0.2c-0.1,0.2-0.1,0.5,0.2,0.7
				c0.8,0.5,1.7,1,2.5,1.5c0.2,0.1,0.6,0.1,0.7-0.2C153.2,36.9,153.1,36.6,152.9,36.5z"/>
			<path class="st1" d="M149.5,45.6c-0.8,0-1.5-0.1-2.3-0.1c-0.3,0-0.5,0.2-0.5,0.5c0,0.3,0.2,0.5,0.5,0.5c0.8,0,1.5,0.1,2.3,0.1
				c0.3,0,0.5-0.2,0.5-0.5C150,45.8,149.8,45.6,149.5,45.6z"/>
			<path class="st1" d="M145.6,50.2c-1.3,0.1-2.6,0.1-3.9,0.2c-0.6,0-0.6,1,0.1,1c1.3-0.1,2.6-0.1,3.9-0.2
				C146.3,51.2,146.3,50.2,145.6,50.2z"/>
			<path class="st1" d="M139.5,57c-3.3,0.5-6.7,1.1-10,1.6c-0.6,0.1-0.4,1.1,0.2,1l10-1.6C140.3,57.8,140.1,56.9,139.5,57z"/>
			<path class="st2" d="M155.8,71.2c0.4,0.5,0.6,1,0.6,1.7c0,1.7-1.7,2.9-3.3,2.6c-0.8-0.2-1.5-0.8-1.9-1.5
				c-0.3-0.7-0.4-1.5-0.3-2.2c-0.5-0.1-1-0.5-1.2-0.9c-0.7-1.2-0.2-2.9,1-3.5c0.6-0.4,1.4-0.4,2,0c0.4,0.3,0.6,0.6,0.7,1.1
				c0.7-0.1,1.3,0.2,1.8,0.7C155.7,69.7,155.8,70.4,155.8,71.2z"/>
			<path class="st2" d="M175.4,87.5c-0.1-0.7-0.5-1.2-1-1.6c-0.6-0.4-1.3-0.6-2-0.6c-0.4-0.5-0.9-0.8-1.5-0.8
				c-0.4,0-0.8,0.1-1.2,0.3c-0.3-0.3-0.6-0.5-0.9-0.7c-0.6-0.3-1.3-0.4-2,0c-0.5,0.3-0.9,0.8-1,1.4c-0.1,0.6,0.1,1.3,0.5,1.8
				c0.4,0.4,0.9,0.7,1.5,0.7c0,0.3,0,0.6,0.1,1c0.1,0.5,0.4,0.9,0.8,1.1c0.8,0.6,1.8,0.5,2.5-0.1c0.1-0.1,0.3-0.3,0.4-0.4
				c0.8,0.6,2.2,0.5,3-0.1C175.2,88.9,175.5,88.2,175.4,87.5z M167,85.2C167,85.2,167,85.2,167,85.2C167,85.2,167,85.2,167,85.2
				C167,85.2,167,85.2,167,85.2z"/>
			<path class="st2" d="M207,70.6c-0.4,0.8-1.1,1.2-1.9,1.5c0,0.1,0,0.3-0.1,0.4c-0.4,0.5-0.9,0.8-1.5,1c-1,0.2-2.2-0.2-2.7-1.2
				c-0.4-0.9-0.2-2,0.6-2.6c-0.1-0.8-0.2-1.6,0.2-2.3c0.3-0.6,0.9-1.1,1.5-1.3c0.7-0.8,1.8-1,2.7-0.5c0.4,0.2,0.8,0.7,0.9,1.2
				c0.1,0.3,0.1,0.7,0,1C207.4,68.4,207.6,69.6,207,70.6z"/>
			<path class="st2" d="M200.3,82.7c0.4,0.9,0,2-0.9,2.4c-0.5,0.2-1,0.3-1.5,0.1c0,0.5-0.3,0.9-0.7,1.2c-0.4,0.3-1,0.4-1.5,0.4
				c-0.5,0-1.1-0.1-1.5-0.4c-0.4-0.3-0.8-0.8-0.8-1.3c0-0.4,0.1-0.7,0.3-1c-0.3-0.6-0.2-1.4,0.1-2c0.3-0.6,0.9-0.9,1.5-1.1
				c0.1-0.4,0.4-0.8,0.8-1c0.5-0.3,1.1-0.4,1.7-0.3c1.1,0.3,1.7,1.2,1.8,2.3C199.9,82.1,200.1,82.4,200.3,82.7z"/>
			<g>
				<g>
					<path class="st2" d="M213.1,47.6C213.1,47.6,213.1,47.7,213.1,47.6C213.1,47.7,213.1,47.7,213.1,47.6
						C213.1,47.7,213.1,47.7,213.1,47.6L213.1,47.6C213.1,47.7,213.1,47.7,213.1,47.6z"/>
				</g>
			</g>
			<g>
				<polygon class="st2" points="205.1,33.3 205.1,33.3 205.1,33.3 				"/>
				<path class="st2" d="M222.8,70.3c-0.1,0.2-0.3,0.4-0.5,0.5c0,0.4-0.2,0.9-0.4,1.2c-0.7,0.8-1.9,0.8-2.7,0.1
					c-0.4-0.4-0.6-1-0.5-1.6c0.1-0.4,0.5-0.7,0.8-0.9c0-0.2,0-0.5,0-0.8c0-0.3,0.2-0.6,0.4-0.9c0.4-0.5,1-0.6,1.5-0.4
					c0.5,0.1,1,0.5,1.2,1C223,69.1,223.1,69.8,222.8,70.3z"/>
				<path class="st2" d="M215.5,46.7c-0.2,0-0.3,0.1-0.5,0.1c-0.4-0.4-1-0.6-1.5-0.6c-0.4,0-0.8,0.2-1,0.5c-0.2,0.2-0.3,0.5-0.3,0.8
					c-0.5,0.5-0.6,1.4-0.2,2c0.4,0.7,1.2,0.9,2,0.8c0.2,0.3,0.4,0.5,0.7,0.6c0.7,0.3,1.4,0.2,2-0.3c0.5-0.4,0.8-1.1,0.8-1.8
					c0-0.7-0.3-1.4-0.8-1.9C216.3,46.9,215.9,46.7,215.5,46.7z M213.1,47.7C213.1,47.7,213.1,47.7,213.1,47.7
					C213.1,47.6,213.1,47.7,213.1,47.7C213.1,47.7,213.1,47.7,213.1,47.7C213.1,47.7,213.1,47.7,213.1,47.7L213.1,47.7z"/>
				<path class="st2" d="M208.5,36.6c-0.6,0.5-1.4,0.6-2.1,0.5c-0.7,0-1.4-0.3-1.8-0.8c-0.2-0.3-0.4-0.7-0.4-1.1
					c0,0-0.1-0.1-0.1-0.1c-0.2-0.4-0.3-0.7-0.3-1.1c0-0.4,0-0.7,0.2-1c0.3-0.5,0.9-0.8,1.5-0.7c0.5-0.4,1.2-0.4,1.8-0.1
					c0.5,0.3,0.8,0.8,0.8,1.3c0.6,0.2,1,0.7,1.2,1.3C209.3,35.5,209,36.2,208.5,36.6z"/>
			</g>
			<path class="st2" d="M211,18.5c-0.3,0.8-0.9,1.3-1.7,1.5c-1.5,0.3-2.8-0.7-3.5-1.9c0,0-0.1,0-0.1,0c-0.7,0-1.5,0.1-2.2-0.2
				c-1.1-0.4-2.1-1.5-1.7-2.7c0.2-0.6,0.7-1.1,1.3-1.2c0.4-0.1,0.8-0.1,1.2,0.1c0.2-0.2,0.5-0.4,0.8-0.5c0.5-0.1,1,0,1.5,0.2
				c0.7,0.3,1.2,0.9,1.5,1.6c0.9,0.1,1.7,0.2,2.4,0.9C211,16.9,211.3,17.7,211,18.5z"/>
			<g>
				<path class="st2" d="M167.5,18.6C167.5,18.6,167.5,18.6,167.5,18.6C167.5,18.6,167.5,18.6,167.5,18.6
					C167.5,18.6,167.5,18.6,167.5,18.6z"/>
			</g>
			<path class="st2" d="M143.7,37c0.1,0.5-0.2,1-0.6,1.3c-0.3,0.3-0.6,0.4-1,0.6c0.1,0.6,0,1.2-0.3,1.8c-0.2,0.4-0.6,0.7-1,0.9
				c-0.1,0.3-0.2,0.6-0.5,0.8c-0.4,0.4-1,0.6-1.6,0.4c-0.6-0.2-1-0.6-1.2-1.2c-0.2-0.6-0.1-1.2,0.1-1.7c0.2-0.3,0.4-0.6,0.7-0.8
				c-0.3-0.5-0.3-1.2,0-1.7c0.3-0.6,0.9-1,1.5-1.1c0.4-0.4,0.8-0.7,1.4-0.8c0.5-0.1,1.1,0,1.5,0.2S143.7,36.5,143.7,37z"/>
			<path class="st2" d="M168.5,18.1c-0.2-0.6-0.7-1-1.2-1.1c-0.4-0.1-0.8,0-1.2,0.1c-0.2-0.2-0.4-0.4-0.7-0.6
				c-0.5-0.3-1.1-0.3-1.7-0.1s-1,0.6-1.3,1.1c-0.2,0.5-0.3,1-0.2,1.5c-0.3,0.4-0.4,0.9-0.2,1.3c0.2,0.6,0.7,1,1.3,1.2
				c0.6,0.2,1.3,0.2,1.8,0c0.4-0.2,0.8-0.4,1-0.8c0.8,0.1,1.7-0.2,2.2-1C168.6,19.2,168.6,18.6,168.5,18.1z M167.5,18.6
				C167.5,18.6,167.5,18.6,167.5,18.6C167.5,18.6,167.5,18.6,167.5,18.6C167.5,18.6,167.5,18.6,167.5,18.6z"/>
			<path class="st2" d="M155.7,25.4c0.3,0.6,0.3,1.2,0,1.8c-0.1,0.2-0.3,0.4-0.5,0.6c0,0.1,0.1,0.1,0.1,0.2c0.1,0.7,0.1,1.4-0.2,2.1
				c-0.3,0.6-0.8,1-1.4,1.2c-0.6,0.2-1.4,0.2-2,0c-0.6-0.2-1.1-0.7-1.2-1.3c-0.1-0.5,0.1-0.9,0.4-1.3c-0.2-0.5-0.2-1.1,0-1.6
				c0.2-0.4,0.7-0.7,1.1-0.8c0-0.5,0.2-1,0.5-1.4c0.5-0.5,1.1-0.7,1.7-0.5C154.9,24.4,155.4,24.9,155.7,25.4z"/>
			<g>
				<path class="st2" d="M128.4,58.7c-0.1,0.5-0.4,0.9-0.8,1.2c0.4,0.5,0.6,1.1,0.5,1.8c-0.1,0.7-0.8,1.1-1.5,1.2
					c-0.6,0.1-1.2-0.1-1.8-0.4c-1.1-0.7-1.7-2.1-1.3-3.4c-0.5-0.8-0.8-1.8-0.5-2.8c0.2-0.9,1-1.6,1.9-1.6c0.1-0.2,0.3-0.4,0.5-0.5
					c0.3-0.2,0.7-0.2,1-0.1c0.3,0.1,0.6,0.3,0.9,0.5c0.5,0.5,0.6,1.2,0.5,1.9C128.4,57.2,128.6,57.9,128.4,58.7z"/>
			</g>
			<path class="st3" d="M155.9,88.2c-0.8-0.7-1.5-1.6-1.7-2.7c-0.2-1,0-2.1,0.7-2.8c0.2-0.2,0.1-0.6-0.1-0.7
				c-0.2-0.2-0.5-0.4-0.7-0.1c-1.5,1.6-3.7,2.1-5.7,1.4c0,0,0,0,0,0c0,0,0,0-0.1,0c-0.3-0.1-0.5,0.1-0.6,0.3
				c-0.1,0.3,0.1,0.5,0.3,0.6c0,0,0.1,0,0.1,0c0.8,0.5,1.4,1.4,1.5,2.4c0.1,1-0.4,2-1.2,2.7c-0.2,0.2-0.2,0.5,0,0.7c0,0,0,0,0,0
				c0.2,0.2,0.5,0.3,0.7,0.1c0.8-0.8,1.7-1.6,2.8-1.9c1.2-0.3,2.3,0.2,3.3,0.7c0.2,0.1,0.4,0,0.5-0.1
				C156,88.9,156.2,88.5,155.9,88.2z"/>
			<path class="st3" d="M188.1,13.5c-1.7-0.6-2.8-2.4-2.5-4.2c0-0.3-0.1-0.5-0.3-0.6c-0.1,0-0.1,0-0.2,0c-0.2,0-0.4,0.2-0.4,0.4
				c-0.7,1.8-2.6,2.8-4.5,2.6c0,0,0,0,0,0c0,0-0.1,0-0.1,0c0,0-0.1,0-0.1,0c-0.1,0.1-0.2,0.2-0.3,0.3c-0.1,0.3,0.1,0.5,0.3,0.6
				c1.9,0.8,2.9,2.9,2.4,4.8c-0.1,0.2,0,0.4,0.2,0.5c0.1,0.1,0.1,0.1,0.2,0.1c0.3,0.1,0.5-0.1,0.6-0.3c0.7-1.9,2.5-3.2,4.6-3.2
				c0.2,0,0.3-0.1,0.4-0.2c0.1-0.1,0.1-0.1,0.1-0.2C188.5,13.8,188.4,13.6,188.1,13.5z"/>
			<path class="st3" d="M223.7,56.5c-1.7-0.5-2.8-2.1-2.8-3.8c0.1-0.2,0-0.4-0.1-0.5c0,0,0,0,0,0c0,0,0,0-0.1,0
				c-0.1,0-0.2-0.1-0.3-0.1c-0.2,0-0.4,0.2-0.5,0.4c-1,1.6-2.7,2.5-4.6,2.2c-0.2,0-0.4,0.2-0.5,0.4c0,0,0,0,0,0.1
				c-0.1,0.2,0.1,0.6,0.3,0.6c0.9,0.1,1.7,0.6,2.3,1.3c0.6,0.7,0.9,1.6,0.8,2.5c0,0.2,0.1,0.3,0.2,0.4c0.1,0.1,0.1,0.1,0.2,0.1
				c0.3,0.1,0.5-0.1,0.6-0.3c0.6-1.6,2.4-2.6,4.1-2.2c0.1,0,0.1,0,0.2,0C224.1,57.5,224.3,56.7,223.7,56.5z"/>
		</g>
	</g>
</g>
<g id="Calque_3">
	<g>
		<rect x="233.3" class="st0" width="116.6" height="100"/>
		<g>
			<path class="st1" d="M247.4,58.8c-0.1-0.3-0.3-0.4-0.6-0.4c-0.8,0.2-1.7,0.3-2.5,0.5c-0.3,0-0.4,0.4-0.4,0.6
				c0.1,0.3,0.3,0.4,0.6,0.4c0.8-0.2,1.7-0.3,2.5-0.5C247.3,59.4,247.5,59,247.4,58.8z"/>
			<path class="st1" d="M258.5,50.5c-0.1-0.1-0.2-0.1-0.4-0.1l-0.9,0c-0.1,0-0.3,0.1-0.3,0.2c-0.1,0.1-0.1,0.2-0.1,0.4
				c0,0.1,0.1,0.3,0.2,0.3c0.1,0.1,0.2,0.1,0.4,0.1l0.9,0c0.1,0,0.3-0.1,0.3-0.2c0.1-0.1,0.1-0.2,0.1-0.4
				C258.7,50.8,258.6,50.6,258.5,50.5z"/>
			<path class="st1" d="M263.2,45.7c-0.1-0.1-0.2-0.1-0.4-0.1c-0.3,0-0.7,0-1-0.1c-0.1,0-0.3,0.1-0.4,0.1c-0.1,0.1-0.2,0.2-0.1,0.4
				c0,0.1,0,0.3,0.1,0.4c0.1,0.1,0.2,0.1,0.4,0.1c0.3,0,0.7,0,1,0.1c0.1,0,0.3-0.1,0.4-0.1c0.1-0.1,0.2-0.2,0.1-0.4
				C263.4,45.9,263.3,45.8,263.2,45.7z"/>
			<path class="st1" d="M266.1,34.6c0-0.1-0.1-0.2-0.1-0.2c-0.3-0.2-0.5-0.4-0.8-0.6c0,0-0.1-0.1-0.2-0.1c-0.1,0-0.1,0-0.2,0
				c-0.1,0-0.3,0.1-0.3,0.2c-0.1,0.1-0.1,0.2-0.1,0.4c0,0,0,0.1,0,0.1c0,0.1,0.1,0.2,0.1,0.2c0.3,0.2,0.5,0.4,0.8,0.6
				c0,0,0.1,0.1,0.2,0.1c0.1,0,0.1,0,0.2,0c0.1,0,0.3-0.1,0.3-0.2c0.1-0.1,0.1-0.2,0.1-0.4C266.1,34.7,266.1,34.7,266.1,34.6z"/>
			<path class="st1" d="M283.2,22.3l-0.4-1c0-0.1-0.2-0.2-0.3-0.3c-0.1,0-0.3,0-0.4,0c-0.1,0.1-0.2,0.1-0.3,0.3c0,0.1,0,0.3,0,0.4
				c0.1,0.3,0.2,0.7,0.4,1c0,0.1,0.2,0.2,0.3,0.3c0.1,0,0.3,0,0.4,0c0.1-0.1,0.2-0.1,0.3-0.3C283.2,22.6,283.2,22.5,283.2,22.3z"/>
			<path class="st1" d="M271.3,13.9c-0.3-0.5-0.6-1.1-0.9-1.6c-0.1-0.2-0.5-0.3-0.7-0.2c-0.2,0.2-0.3,0.4-0.2,0.7
				c0.3,0.5,0.6,1.1,0.9,1.6c0.1,0.2,0.5,0.3,0.7,0.2C271.3,14.4,271.4,14.2,271.3,13.9z"/>
			<path class="st1" d="M293.4,11.9c-0.3,0-0.5,0.2-0.5,0.5l-0.3,2.4c0,0.3,0.3,0.5,0.5,0.5c0.3,0,0.5-0.2,0.5-0.5l0.3-2.4
				C293.9,12.1,293.6,11.9,293.4,11.9z"/>
			<path class="st1" d="M312.2,6c-0.3-0.1-0.5,0.1-0.6,0.3c-0.3,0.8-0.6,1.5-0.9,2.3c-0.1,0.2,0.1,0.6,0.3,0.6
				c0.3,0.1,0.5-0.1,0.6-0.3c0.3-0.8,0.6-1.5,0.9-2.3C312.6,6.4,312.4,6,312.2,6z"/>
			<path class="st1" d="M314.4,22.8c-0.1-0.1-0.2-0.2-0.4-0.1c-0.1,0-0.3,0-0.4,0.1c-0.2,0.3-0.5,0.5-0.7,0.8c0,0-0.1,0.1-0.1,0.2
				c0,0.1,0,0.1,0,0.2c0,0.1,0.1,0.3,0.1,0.4c0.1,0.1,0.2,0.2,0.4,0.1c0.1,0,0.3,0,0.4-0.1c0.2-0.3,0.5-0.5,0.7-0.8
				c0,0,0.1-0.1,0.1-0.2c0-0.1,0-0.1,0-0.2C314.6,23,314.5,22.9,314.4,22.8z"/>
			<path class="st1" d="M320.8,31.9c0-0.1-0.1-0.1-0.1-0.2c-0.1-0.1-0.2-0.2-0.4-0.1c0,0-0.1,0-0.1,0c-0.1,0-0.2,0.1-0.2,0.1
				c-0.2,0.2-0.4,0.3-0.6,0.5c0,0-0.1,0.1-0.1,0.2c0,0.1,0,0.1,0,0.2c0,0.1,0,0.1,0,0.2c0,0.1,0.1,0.1,0.1,0.2
				c0.1,0.1,0.2,0.2,0.4,0.1c0,0,0.1,0,0.1,0c0.1,0,0.2-0.1,0.2-0.1c0.2-0.2,0.4-0.3,0.6-0.5c0,0,0.1-0.1,0.1-0.2c0-0.1,0-0.1,0-0.2
				C320.8,32,320.8,32,320.8,31.9z"/>
			<path class="st1" d="M312.8,33.2c-0.1-0.1-0.2-0.2-0.4-0.1c0,0-0.1,0-0.1,0c-0.1,0-0.2,0.1-0.2,0.1c-0.3,0.2-0.5,0.4-0.8,0.6
				c0,0-0.1,0.1-0.1,0.2c0,0.1,0,0.1,0,0.2c0,0.1,0.1,0.3,0.1,0.4c0.1,0.1,0.2,0.2,0.4,0.1c0,0,0.1,0,0.1,0c0.1,0,0.2-0.1,0.2-0.1
				c0.3-0.2,0.5-0.4,0.8-0.6c0,0,0.1-0.1,0.1-0.2c0-0.1,0-0.1,0-0.2C312.9,33.5,312.8,33.3,312.8,33.2z"/>
			<path class="st1" d="M321.7,37.4c0-0.1-0.1-0.1-0.1-0.2c0,0-0.1-0.1-0.1-0.1c-0.1,0-0.2-0.1-0.3-0.1c0,0-0.1,0-0.1,0
				c-0.1,0-0.2,0.1-0.2,0.1c-0.1,0.1-0.3,0.3-0.4,0.4c0,0-0.1,0.1-0.1,0.2c0,0.1,0,0.1,0,0.2c0,0.1,0,0.1,0,0.2
				c0,0.1,0.1,0.1,0.1,0.2c0,0,0.1,0.1,0.1,0.1c0.1,0,0.2,0.1,0.3,0.1c0,0,0.1,0,0.1,0c0.1,0,0.2-0.1,0.2-0.1
				c0.1-0.1,0.3-0.3,0.4-0.4c0,0,0.1-0.1,0.1-0.2c0-0.1,0-0.1,0-0.2C321.7,37.5,321.7,37.5,321.7,37.4z"/>
			<path class="st1" d="M335.8,37.7c-0.1-0.2-0.4-0.3-0.7-0.2c-0.5,0.3-1.1,0.6-1.6,0.9c-0.2,0.1-0.3,0.5-0.2,0.7
				c0.1,0.2,0.4,0.3,0.7,0.2c0.5-0.3,1.1-0.6,1.6-0.9C335.8,38.2,335.9,37.9,335.8,37.7z"/>
			<path class="st1" d="M324.6,50.4h-1.1c-0.1,0-0.3,0.1-0.4,0.1c-0.1,0.1-0.2,0.2-0.1,0.4c0,0.3,0.2,0.5,0.5,0.5h1.1
				c0.1,0,0.3-0.1,0.4-0.1c0.1-0.1,0.2-0.2,0.1-0.4C325,50.6,324.8,50.4,324.6,50.4z"/>
			<path class="st1" d="M337.6,61.6c-0.6-0.2-1.2-0.4-1.8-0.6c-0.2-0.1-0.6,0.1-0.6,0.3c-0.1,0.3,0.1,0.5,0.3,0.6
				c0.6,0.2,1.2,0.4,1.8,0.6c0.2,0.1,0.6-0.1,0.6-0.3C338.1,61.9,337.9,61.7,337.6,61.6z"/>
			<path class="st1" d="M321.9,64.9c-0.3-0.2-0.7-0.3-1-0.5c-0.1-0.1-0.3-0.1-0.4,0c-0.1,0-0.2,0.1-0.3,0.2c-0.1,0.1-0.1,0.3,0,0.4
				c0,0.1,0.1,0.2,0.2,0.3c0.3,0.2,0.7,0.3,1,0.5c0.1,0.1,0.3,0.1,0.4,0c0.1,0,0.2-0.1,0.3-0.2c0.1-0.1,0.1-0.3,0-0.4
				C322.1,65.1,322,65,321.9,64.9z"/>
			<path class="st1" d="M324.8,77.9c-0.5-0.4-1.1-0.8-1.6-1.2c-0.2-0.2-0.5-0.1-0.7,0.1c-0.2,0.2-0.1,0.5,0.1,0.7
				c0.5,0.4,1.1,0.8,1.6,1.2c0.2,0.2,0.5,0.1,0.7-0.1C325.1,78.4,325,78,324.8,77.9z"/>
			<path class="st1" d="M310.8,77.2c-0.6,0-0.6,1,0,1C311.4,78.2,311.4,77.2,310.8,77.2z"/>
			<path class="st1" d="M306.9,83.7c-0.1-0.2-0.2-0.4-0.3-0.6c0-0.1-0.1-0.1-0.1-0.1c0,0-0.1-0.1-0.2-0.1c-0.1,0-0.1,0-0.2,0
				c-0.1,0-0.1,0-0.2,0c-0.1,0.1-0.2,0.2-0.2,0.3c0,0,0,0.1,0,0.1c0,0.1,0,0.2,0.1,0.3c0.1,0.2,0.2,0.4,0.3,0.6
				c0,0.1,0.1,0.1,0.1,0.1c0,0,0.1,0.1,0.2,0.1c0.1,0,0.1,0,0.2,0c0.1,0,0.1,0,0.2,0c0.1-0.1,0.2-0.2,0.2-0.3c0,0,0-0.1,0-0.1
				C307,83.9,306.9,83.8,306.9,83.7z"/>
			<path class="st1" d="M299.7,76.8c0-0.1,0-0.1-0.1-0.2c0-0.1-0.1-0.1-0.1-0.1c-0.1-0.1-0.3-0.1-0.4-0.1c-0.1,0-0.3,0.1-0.3,0.2
				c-0.1,0.1-0.1,0.2-0.1,0.4c0.1,0.3,0.2,0.6,0.3,0.9c0,0.1,0,0.1,0.1,0.2c0,0.1,0.1,0.1,0.1,0.1c0.1,0.1,0.3,0.1,0.4,0.1
				c0.1,0,0.3-0.1,0.3-0.2c0.1-0.1,0.1-0.2,0.1-0.4C299.9,77.4,299.8,77.1,299.7,76.8z"/>
			<path class="st1" d="M299.5,95.1c-0.1-0.6-0.2-1.2-0.3-1.8c0-0.3-0.3-0.5-0.6-0.4c-0.3,0.1-0.5,0.3-0.4,0.6
				c0.1,0.6,0.2,1.2,0.3,1.8c0,0.3,0.3,0.5,0.6,0.4C299.3,95.6,299.5,95.3,299.5,95.1z"/>
			<path class="st1" d="M287.4,83c-0.1-0.1-0.2-0.2-0.4-0.1c-0.1,0-0.3,0-0.4,0.1c0,0-0.1,0.1-0.1,0.1c0,0.1-0.1,0.2-0.1,0.3
				c-0.1,0.4-0.1,0.9-0.2,1.3c0,0.1,0.1,0.3,0.1,0.4c0.1,0.1,0.2,0.2,0.4,0.1c0.1,0,0.3,0,0.4-0.1c0,0,0.1-0.1,0.1-0.1
				c0-0.1,0.1-0.2,0.1-0.3c0.1-0.4,0.1-0.9,0.2-1.3C287.6,83.2,287.5,83.1,287.4,83z"/>
			<path class="st1" d="M278.7,81.1c0-0.1,0-0.1-0.1-0.2c0-0.1-0.1-0.1-0.1-0.1c0,0-0.1,0-0.1-0.1c-0.1,0-0.2,0-0.3,0
				c0,0-0.1,0-0.1,0.1c-0.1,0-0.1,0.1-0.2,0.2c-0.1,0.2-0.2,0.3-0.2,0.5c0,0.1-0.1,0.1-0.1,0.2c0,0.1,0,0.1,0,0.2
				c0,0.1,0,0.1,0.1,0.2c0,0.1,0.1,0.1,0.1,0.1c0,0,0.1,0,0.1,0.1c0.1,0,0.2,0,0.3,0c0,0,0.1,0,0.1-0.1c0.1,0,0.1-0.1,0.2-0.2
				c0.1-0.2,0.2-0.3,0.2-0.5c0-0.1,0.1-0.1,0.1-0.2C278.7,81.3,278.7,81.2,278.7,81.1z"/>
			<path class="st1" d="M277.5,72.6c0-0.1-0.1-0.1-0.1-0.1c-0.1-0.1-0.2-0.1-0.4-0.1c0,0-0.1,0-0.1,0c-0.1,0-0.1,0.1-0.2,0.2
				c-0.2,0.2-0.3,0.4-0.5,0.6c0,0.1-0.1,0.1-0.1,0.2c0,0.1,0,0.1,0,0.2c0,0.1,0,0.1,0.1,0.2c0,0.1,0.1,0.1,0.1,0.1
				c0.1,0.1,0.2,0.1,0.4,0.1c0,0,0.1,0,0.1,0c0.1,0,0.1-0.1,0.2-0.2c0.2-0.2,0.3-0.4,0.5-0.6c0-0.1,0.1-0.1,0.1-0.2
				c0-0.1,0-0.1,0-0.2C277.6,72.7,277.6,72.6,277.5,72.6z"/>
			<path class="st1" d="M266.5,65c-0.1-0.1-0.2-0.2-0.3-0.3c-0.1,0-0.3-0.1-0.4,0c-0.4,0.2-0.8,0.4-1.2,0.7
				c-0.1,0.1-0.2,0.1-0.3,0.3c0,0.1,0,0.3,0,0.4c0.1,0.1,0.2,0.2,0.3,0.3c0.1,0,0.3,0.1,0.4,0l1.2-0.7c0.1-0.1,0.2-0.1,0.3-0.3
				C266.6,65.3,266.6,65.1,266.5,65z"/>
			<path class="st1" d="M268.7,59.6c-0.1-0.3-0.4-0.4-0.7-0.3c-0.5,0.2-1,0.4-1.6,0.6c-0.2,0.1-0.4,0.4-0.3,0.7
				c0.1,0.3,0.4,0.4,0.7,0.3c0.5-0.2,1-0.4,1.6-0.6C268.7,60.1,268.8,59.8,268.7,59.6z"/>
			<path class="st1" d="M261.3,81c-0.2-0.2-0.5-0.2-0.7,0c-0.6,0.5-1.2,1-1.7,1.6c-0.2,0.2-0.2,0.5,0,0.7c0.2,0.2,0.5,0.2,0.7,0
				c0.6-0.5,1.2-1,1.7-1.6C261.5,81.5,261.5,81.2,261.3,81z"/>
			<path class="st2" d="M240.4,58.4c0.1-0.5,0.2-1.1,0.1-1.6c-0.1-0.5-0.4-1-0.9-1.2c-0.5-0.3-1.1-0.2-1.6,0.2
				c-0.4,0.4-0.6,0.9-0.6,1.4c-0.1,0.5,0,0.9,0.2,1.3c-0.2,0.3-0.4,0.7-0.4,1.1c0,0.4,0.1,0.8,0.4,1.2c0,0.4,0,0.8,0.1,1.2
				c0.1,0.4,0.4,0.7,0.7,0.9c0.4,0.2,0.9,0.2,1.3-0.1c0.4-0.2,0.6-0.6,0.7-1c0.1-0.5,0-1-0.1-1.5c0,0,0,0,0-0.1
				C240.6,59.6,240.6,59,240.4,58.4z"/>
			<path class="st2" d="M256.6,36.4c-0.2-0.4-0.7-0.7-1.1-0.7c-0.5,0-0.9,0.3-1.2,0.6c-0.3,0.3-0.5,0.6-0.6,1
				c-0.3,0.2-0.6,0.5-0.8,0.9c-0.2,0.4-0.2,1,0.1,1.4c0.3,0.4,0.7,0.6,1.2,0.7c0.4,0,0.9-0.1,1.2-0.4c0.4-0.3,0.6-0.8,0.7-1.2
				c0-0.1,0-0.2,0-0.3c0.2-0.2,0.4-0.3,0.5-0.5C256.8,37.4,256.8,36.9,256.6,36.4z"/>
			<path class="st2" d="M267.8,27c-0.2-0.3-0.5-0.6-0.8-0.7c-0.4-0.2-0.9-0.1-1.2,0.3c-0.1,0.2-0.2,0.4-0.3,0.6c0,0.2,0,0.3,0,0.5
				c-0.1,0.1-0.2,0.2-0.3,0.3c-0.2,0.3-0.3,0.7-0.2,1c0.1,0.4,0.4,0.6,0.8,0.7c0.4,0.1,0.7,0,1-0.1c0.3-0.1,0.5-0.4,0.5-0.7
				c0.2-0.2,0.4-0.4,0.4-0.7C268,27.7,268,27.3,267.8,27z"/>
			<path class="st2" d="M270.2,24.4c0-0.1,0-0.1-0.1-0.1c0,0,0,0,0,0c0-0.1-0.1-0.1-0.1-0.2c-0.2-0.2-0.4-0.3-0.7-0.2
				c-0.2,0-0.3,0-0.4,0.1c0,0-0.1,0.1-0.1,0.1c0,0-0.1,0.1-0.1,0.1c-0.1,0.1-0.2,0.2-0.2,0.4c0,0.2,0,0.3,0,0.5c0,0,0,0.1,0.1,0.1
				c0,0.1,0,0.2,0.1,0.3c0.1,0.1,0.1,0.1,0.2,0.2c0,0,0.1,0.1,0.2,0.1c0.1,0,0.2,0,0.4,0c0.1,0,0.2,0,0.2,0c0.2-0.1,0.3-0.1,0.4-0.3
				c0,0,0-0.1,0-0.1c0,0,0,0,0,0c0.1-0.1,0.2-0.2,0.2-0.4C270.3,24.7,270.3,24.5,270.2,24.4z"/>
			<path class="st2" d="M281.4,15.3c-0.3-0.5-0.7-0.9-1.3-1c-0.6-0.1-1.2,0-1.7,0.4c-0.3,0.3-0.5,0.7-0.6,1.1
				c-0.4,0.1-0.8,0.3-1,0.6c-0.4,0.5-0.5,1-0.4,1.6c0,0.1,0,0.2,0,0.3c0.1,0.3,0.4,0.5,0.7,0.5c0.1,0,0.2,0,0.2,0c0,0,0,0,0.1,0
				c0,0,0,0,0,0c0,0,0.1,0.1,0.1,0.1c0.2,0.1,0.4,0.2,0.7,0.3c0.9,0.2,1.8-0.4,2.2-1.2c0.5-0.2,0.8-0.5,1-1
				C281.8,16.5,281.7,15.8,281.4,15.3z"/>
			<path class="st2" d="M283.7,15.2c-0.2-0.1-0.6-0.1-0.8,0c-0.2,0.1-0.3,0.3-0.4,0.6c0,0.1-0.1,0.1-0.1,0.2c0,0.1,0,0.1,0,0.2
				c0,0.1,0,0.1,0.1,0.2c0,0.1,0,0.1,0,0.2c0,0.1,0,0.1,0,0.2c0,0.1,0.1,0.2,0.2,0.3c0,0.1,0.1,0.1,0.2,0.1c0.1,0,0.1,0.1,0.2,0.1
				c0.1,0,0.3,0,0.4,0c0.2-0.1,0.3-0.2,0.4-0.3c0.1-0.1,0.1-0.3,0.1-0.4c0-0.1,0-0.1-0.1-0.2c0-0.1,0.1-0.1,0.1-0.2
				C284.2,15.8,284,15.4,283.7,15.2z"/>
			<path class="st2" d="M327.6,15.9c-0.1-0.2-0.3-0.3-0.5-0.4c-0.2-0.1-0.4-0.1-0.6,0c-0.1,0-0.1,0.1-0.2,0.1c-0.1,0-0.2,0-0.3,0
				c-0.3,0-0.6,0.2-0.6,0.6c-0.1,0.3,0,0.6,0.2,0.8c0.1,0.1,0.2,0.2,0.3,0.2c0.1,0.2,0.3,0.4,0.6,0.5c0.4,0.1,0.9-0.1,1-0.5
				c0-0.1,0.1-0.2,0.1-0.3c0-0.1,0-0.2,0-0.2c0-0.1,0-0.2,0-0.3C327.7,16.2,327.6,16,327.6,15.9z"/>
			<g>
				<path class="st2" d="M321.9,14.3C321.8,14.3,321.8,14.3,321.9,14.3L321.9,14.3z"/>
				<path class="st2" d="M324.7,13.6c-0.2-0.6-0.6-1.1-1.2-1.3c-0.5-0.2-1-0.1-1.5,0.2c-0.3-0.1-0.6-0.2-0.9-0.2
					c-0.4,0-0.8,0.2-1.1,0.4c-0.6,0.5-0.6,1.6,0.2,2c0.2,0.1,0.4,0.2,0.6,0.2c0.1,0,0.1,0,0.1,0c0.3,0.3,0.7,0.5,1.1,0.5
					c0.3,0.2,0.6,0.4,1,0.4c0.5,0,1.1-0.2,1.4-0.6C324.7,14.7,324.9,14.1,324.7,13.6z"/>
			</g>
			<path class="st2" d="M326,32.7c-0.3-0.4-0.7-0.6-1.2-0.7c-0.3-0.3-0.8-0.5-1.2-0.4c-0.3,0-0.6,0.2-0.8,0.4
				c-0.3,0.3-0.4,0.7-0.3,1c0.1,0.3,0.3,0.6,0.5,0.9c0.1,0.1,0.1,0.1,0.2,0.1c0,0.1,0.1,0.2,0.1,0.4c0.3,0.5,0.9,0.7,1.4,0.7
				c0.6,0,1.2-0.2,1.4-0.7C326.5,33.7,326.4,33.1,326,32.7z"/>
			<g>
				<path class="st2" d="M334.3,47.3c-0.1-0.1-0.2-0.2-0.4-0.3c0-0.1,0-0.1,0-0.2c0-0.1,0-0.2-0.1-0.2c0-0.3-0.1-0.6-0.3-0.8
					c-0.2-0.3-0.6-0.5-1-0.5c-0.8-0.1-1.4,0.6-1.5,1.4c0,0.4,0.2,0.8,0.4,1.1c0,0,0,0.1-0.1,0.1c-0.2,0.6,0.2,1.2,0.7,1.5
					c0.5,0.3,1.1,0.4,1.7,0.1c0.5-0.2,0.8-0.8,0.8-1.3C334.6,47.9,334.5,47.6,334.3,47.3z"/>
				<path class="st2" d="M332.2,46.9C332.2,46.9,332.2,47,332.2,46.9L332.2,46.9z"/>
			</g>
			<path class="st2" d="M325.1,69.6c-0.1-0.2-0.2-0.4-0.4-0.6c-0.3-0.2-0.7-0.4-1-0.4c-0.8,0.1-1.4,0.7-1.6,1.4
				c-0.1,0.3,0,0.6,0,0.9c-0.8,0.5-1.2,1.6-1,2.5c0.1,0.3,0.2,0.6,0.4,0.8c0.3,0.2,0.6,0.3,0.9,0.3c0.6,0,1.1-0.3,1.5-0.6
				c0.4-0.4,0.7-0.9,0.7-1.4c0.1-0.1,0.2-0.1,0.3-0.2c0.4-0.3,0.7-0.5,0.8-1C326.2,70.7,325.8,69.9,325.1,69.6z"/>
			<path class="st2" d="M340.6,71.2c0,0,0-0.1,0-0.1c0-0.2-0.1-0.3-0.3-0.4c-0.3-0.3-0.7-0.3-1.1-0.2c-0.6,0.2-1.1,0.9-1.2,1.5
				c0,0.1,0,0.2,0,0.3c0,0,0,0,0,0.1c-0.1,0.3,0,0.6,0.2,0.8c0.2,0.2,0.5,0.3,0.7,0.3c0.3,0,0.5-0.1,0.7-0.3
				c0.1-0.1,0.1-0.1,0.2-0.2c0,0,0,0,0,0c0,0,0,0,0.1,0c0.2-0.1,0.4-0.1,0.6-0.2c0.3-0.2,0.5-0.5,0.4-0.8
				C340.9,71.6,340.8,71.4,340.6,71.2z"/>
			<g>
				<path class="st2" d="M316.5,85.9C316.5,85.9,316.5,85.9,316.5,85.9L316.5,85.9z"/>
				<path class="st2" d="M315.7,85.6C315.8,85.5,315.8,85.5,315.7,85.6L315.7,85.6z"/>
				<path class="st2" d="M317.5,85.7C317.5,85.7,317.5,85.7,317.5,85.7c0-0.3-0.1-0.5-0.3-0.8c-0.3-0.3-0.6-0.4-1-0.5
					c-0.5-0.1-1,0.1-1.3,0.5c-0.3-0.1-0.6-0.1-0.9,0c-0.3,0.1-0.5,0.3-0.7,0.5c-0.1,0.1-0.1,0.2-0.1,0.3c-0.2,0.1-0.4,0.3-0.5,0.4
					c-0.2,0.3-0.2,0.7-0.2,1c0.1,0.7,0.8,1.2,1.5,1.1c0.2,0,0.4-0.1,0.6-0.2c0.2-0.1,0.3-0.2,0.4-0.3c0.4,0.1,0.8,0.2,1.2,0.1
					C317.3,87.9,318,86.7,317.5,85.7z"/>
			</g>
			<path class="st2" d="M290.9,89.5c-0.2-0.4-0.6-0.6-1.1-0.6c-0.4-0.1-0.8,0-1.2,0.1c-0.4-0.2-0.9-0.2-1.4-0.1
				c-0.5,0.1-0.9,0.5-1.1,1c-0.2,0.5,0,1,0.3,1.4c0.3,0.4,0.8,0.6,1.3,0.7c0.6,0.1,1.1-0.2,1.5-0.6c0,0,0,0,0,0c0.3,0,0.5,0,0.8,0
				c0.4-0.1,0.8-0.3,0.9-0.7C291.2,90.2,291.1,89.8,290.9,89.5z"/>
			<path class="st2" d="M284.5,88.4c-0.1-0.4-0.4-0.7-0.7-0.8c-0.2-0.1-0.4,0-0.6,0.1c0,0,0,0,0,0c-0.2-0.1-0.5-0.1-0.7,0
				c-0.3,0.1-0.6,0.4-0.7,0.7c-0.1,0.4,0,0.8,0.3,1c0.1,0.1,0.2,0.1,0.3,0.2c0,0.1,0,0.2,0.1,0.2c0.1,0.2,0.3,0.3,0.5,0.4
				c0.2,0,0.4,0,0.6,0c0.4-0.1,0.7-0.3,0.8-0.7c0,0,0,0,0,0c0,0,0,0,0,0C284.5,89.1,284.6,88.7,284.5,88.4z"/>
			<path class="st2" d="M270.1,75.4c0-0.1-0.1-0.3-0.2-0.4c-0.1-0.1-0.2-0.2-0.4-0.2c-0.1,0-0.2,0-0.2,0c0,0-0.1,0-0.1,0
				c-0.2,0-0.3,0-0.4,0.1c-0.1,0.1-0.2,0.2-0.2,0.3c0,0-0.1,0-0.1,0.1c-0.2,0.1-0.3,0.2-0.3,0.4c0,0.1,0,0.3,0,0.4
				c0,0.1,0.1,0.2,0.2,0.3c0,0.1,0.1,0.1,0.2,0.1c0.1,0.1,0.3,0.1,0.4,0.1c0.1,0,0.1,0,0.2,0c0.1,0,0.1,0,0.2,0
				c0.1,0,0.2-0.1,0.4-0.2c0.1,0,0.1-0.1,0.2-0.1c0.1-0.1,0.2-0.2,0.3-0.3C270.1,75.8,270.1,75.6,270.1,75.4z"/>
			<path class="st2" d="M266.5,69.6c-0.1-0.5-0.4-0.9-0.8-1.1c-0.3-0.2-0.7-0.2-1.1-0.1c-0.3,0.1-0.5,0.3-0.6,0.5
				c-0.6,0.3-1,0.9-0.9,1.6c0.1,0.6,0.4,1.1,0.9,1.4c-0.1,0.5-0.1,0.9,0.1,1.4c0.3,0.5,0.9,0.8,1.5,0.6c0.4,0,0.8-0.2,1-0.4
				c0.4-0.4,0.5-0.9,0.4-1.4C267.4,71.2,267.2,70.2,266.5,69.6z"/>
			<path class="st3" d="M271.1,91.4c-0.6-0.4-1.2-0.9-1.8-1.4c-0.5-0.5-1.1-1-1.3-1.7c-0.2-0.7,0.5-1.4,0.8-1.9
				c0.5-0.7,0.9-1.5,1.4-2.2c0.2-0.3,0.1-0.5-0.1-0.6c-0.2-0.2-0.6-0.3-0.8,0.1c-0.7,1.3-1.6,2.4-2.8,3.3c-0.3,0.2-0.6,0.4-0.9,0.4
				c-0.4,0-0.7-0.2-1-0.4c-0.8-0.4-1.5-0.9-2.3-1.3c0,0,0,0-0.1,0c0,0,0,0,0,0c-0.6-0.3-1.1,0.6-0.5,0.9c0.6,0.3,1.2,0.7,1.7,1.2
				c0.5,0.4,1.1,0.9,1.2,1.5c0.2,0.6-0.4,1.2-0.8,1.7c-0.5,0.7-1,1.3-1.5,2c-0.2,0.2-0.2,0.5,0,0.7c0,0,0,0,0,0
				c0.2,0.2,0.5,0.3,0.7,0c0.5-0.6,1.1-1.2,1.6-1.9c0.4-0.5,0.9-1.4,1.6-1.5c0.7-0.1,1.5,0.4,2.1,0.7c0.7,0.4,1.4,0.8,2,1.3
				c0.2,0.2,0.6,0.1,0.7-0.1C271.4,92.1,271.5,91.6,271.1,91.4z"/>
			<path class="st3" d="M306.4,11c-0.7-0.1-1.3-0.3-1.9-0.5c-0.3-0.1-0.6-0.3-0.9-0.5c0-0.1,0-0.1-0.1-0.2c-0.1-0.2-0.3-0.3-0.5-0.3
				c-0.1-0.1-0.1-0.2-0.1-0.3c0,0,0,0,0,0c0.1-0.2,0.1-0.4-0.1-0.6c0-0.3,0.1-0.6,0.1-0.8c0.1-0.7,0.2-1.5,0.3-2.2
				c0-0.3-0.1-0.5-0.3-0.6c-0.1,0-0.3,0-0.4,0.1c-0.1,0-0.2,0.1-0.3,0.3c-0.2,0.7-0.4,1.4-0.6,2c-0.2,0.6-0.5,1.3-0.9,1.8
				c-0.4,0.5-1.1,0.3-1.7,0.3c-0.7-0.1-1.5-0.2-2.2-0.4c-0.4-0.1-0.7,0.3-0.6,0.6c0,0.2,0.1,0.4,0.4,0.4c1.2,0.2,2.7,0.5,3.3,1.7
				c0.3,0.6,0.2,1.3,0.1,1.9c-0.1,0.8-0.3,1.5-0.6,2.2c-0.1,0.2,0,0.3,0.1,0.4c0.1,0.4,0.8,0.5,1,0c0.2-0.7,0.4-1.4,0.7-2.1
				c0.2-0.6,0.5-1.3,0.9-1.8c0.5-0.5,1-0.5,1.7-0.5c0.8,0.1,1.6,0.2,2.4,0.3c0.2,0,0.3-0.1,0.4-0.3c0.1-0.1,0.1-0.1,0.1-0.2
				C306.8,11.4,306.6,11.1,306.4,11z"/>
			<path class="st3" d="M345,57.5c0-0.2-0.1-0.4-0.4-0.5l-2.2-0.5c-0.6-0.1-1.2-0.2-1.7-0.6c-0.9-0.9-0.6-2.4-0.4-3.5
				c0-0.2,0-0.3-0.1-0.4c-0.2-0.3-0.8-0.4-0.9,0.1c-0.2,0.7-0.5,1.4-0.7,2c-0.1,0.4-0.3,1-0.7,1.3c-0.5,0.3-1.2,0.1-1.7,0
				c-0.7-0.1-1.4-0.3-2.1-0.4c-0.3,0-0.5,0.1-0.6,0.3c0,0.1,0,0.1,0,0.2c0,0.2,0.1,0.4,0.3,0.5c0.7,0.2,1.3,0.4,2,0.6
				c0.5,0.2,1,0.3,1.4,0.7c0.8,0.9,0.3,2.3,0,3.3c-0.2,0.5,0.3,0.7,0.7,0.6c0.2,0,0.4-0.1,0.5-0.4c0.3-1.1,0.6-2.6,1.8-3
				c0.6-0.2,1.3-0.1,2,0c0.7,0.1,1.5,0.2,2.2,0.3c0.3,0,0.5-0.3,0.5-0.5C345,57.6,345,57.6,345,57.5z"/>
		</g>
	</g>
</g>
<g id="Calque_4">
	<g>
		<rect x="349.9" class="st0" width="116.6" height="100"/>
		<g>
			<path class="st1" d="M360.3,59c-0.6,0-0.6,1,0,1C360.9,60,360.9,59,360.3,59z"/>
			<path class="st1" d="M375,83.1c-0.6,0-0.6,1,0,1C375.6,84.1,375.6,83.1,375,83.1z"/>
			<path class="st1" d="M381,65.7c-0.6,0-0.6,1,0,1C381.6,66.7,381.6,65.7,381,65.7z"/>
			<path class="st1" d="M382.4,60.1c-0.6,0-0.6,1,0,1C383.1,61.1,383.1,60.1,382.4,60.1z"/>
			<path class="st1" d="M373.2,50.5c-0.6,0-0.6,1,0,1C373.9,51.5,373.9,50.5,373.2,50.5z"/>
			<path class="st1" d="M377.7,45.4c-0.6,0-0.6,1,0,1C378.3,46.4,378.3,45.4,377.7,45.4z"/>
			<path class="st1" d="M394.3,81.7c-0.6,0-0.6,1,0,1C395,82.7,395,81.7,394.3,81.7z"/>
			<path class="st1" d="M392.6,73.8c-0.6,0-0.6,1,0,1C393.2,74.8,393.2,73.8,392.6,73.8z"/>
			<path class="st1" d="M403.4,84.4c-0.6,0-0.6,1,0,1C404.1,85.4,404.1,84.4,403.4,84.4z"/>
			<path class="st1" d="M415.6,95.3c-0.6,0-0.6,1,0,1C416.3,96.3,416.3,95.3,415.6,95.3z"/>
			<path class="st1" d="M423.3,83.9c-0.6,0-0.6,1,0,1C423.9,84.9,423.9,83.9,423.3,83.9z"/>
			<path class="st1" d="M416.3,77.7c-0.6,0-0.6,1,0,1C416.9,78.7,416.9,77.7,416.3,77.7z"/>
			<path class="st1" d="M428.8,5.6c-0.6,0-0.6,1,0,1C429.4,6.6,429.4,5.6,428.8,5.6z"/>
			<path class="st1" d="M441.4,78c-0.6,0-0.6,1,0,1C442.1,79,442.1,78,441.4,78z"/>
			<path class="st1" d="M454.5,61.7c-0.6,0-0.6,1,0,1C455.1,62.7,455.1,61.7,454.5,61.7z"/>
			<path class="st1" d="M438.7,65c-0.6,0-0.6,1,0,1C439.4,66,439.4,65,438.7,65z"/>
			<path class="st1" d="M441.5,50.4c-0.6,0-0.6,1,0,1C442.2,51.4,442.2,50.4,441.5,50.4z"/>
			<path class="st1" d="M452.1,37.3c-0.6,0-0.6,1,0,1C452.8,38.3,452.8,37.3,452.1,37.3z"/>
			<path class="st1" d="M438,37c-0.6,0-0.6,1,0,1C438.7,38,438.7,37,438,37z"/>
			<path class="st1" d="M437.2,31.5c-0.6,0-0.6,1,0,1C437.8,32.5,437.8,31.5,437.2,31.5z"/>
			<path class="st1" d="M429.3,32.9c-0.6,0-0.6,1,0,1C429.9,33.9,429.9,32.9,429.3,32.9z"/>
			<path class="st1" d="M430.9,22.4c-0.6,0-0.6,1,0,1C431.5,23.4,431.5,22.4,430.9,22.4z"/>
			<path class="st1" d="M410,11.6c-0.6,0-0.6,1,0,1C410.7,12.6,410.7,11.6,410,11.6z"/>
			<path class="st1" d="M398.9,20.7c-0.6,0-0.6,1,0,1C399.5,21.7,399.5,20.7,398.9,20.7z"/>
			<path class="st1" d="M381.2,33.5c-0.6,0-0.6,1,0,1C381.9,34.5,381.9,33.5,381.2,33.5z"/>
			<path class="st1" d="M386.5,11.7c-0.6,0-0.6,1,0,1C387.1,12.7,387.1,11.7,386.5,11.7z"/>
			<path class="st2" d="M354.8,56.3c0-0.1,0-0.1,0-0.2c0-0.1,0-0.1-0.1-0.2c0-0.1-0.1-0.1-0.1-0.1c-0.1,0-0.1-0.1-0.2-0.1
				c-0.1,0-0.1,0-0.2,0c0,0,0,0-0.1,0c0,0-0.1,0-0.1,0c-0.1,0-0.2,0.1-0.2,0.1c-0.1,0.1-0.1,0.1-0.2,0.2c0,0,0,0,0,0.1
				c0,0.1-0.1,0.1-0.1,0.2c0,0.1,0,0.1,0,0.2c0,0,0,0,0,0c0,0.1,0,0.1,0,0.2c0,0,0,0,0,0c0,0,0,0.1,0.1,0.1c0,0.1,0.1,0.1,0.1,0.1
				c0.1,0.1,0.2,0.2,0.3,0.2c0.1,0,0.2,0,0.3,0c0,0,0,0,0,0c0,0,0.1,0,0.1-0.1c0,0,0,0,0,0c0,0,0.1-0.1,0.1-0.1c0,0,0.1-0.1,0.1-0.1
				c0,0,0,0,0,0c0,0,0-0.1,0.1-0.1c0,0,0,0,0,0c0-0.1,0-0.1,0-0.2C354.8,56.5,354.8,56.4,354.8,56.3z"/>
			<path class="st2" d="M355.1,59.1c-0.1-0.1-0.2-0.3-0.3-0.4c0,0,0,0,0,0c0,0,0-0.1,0-0.1c0,0,0-0.1,0-0.1c0-0.1,0-0.1-0.1-0.2
				c0,0,0,0,0-0.1c0-0.1-0.1-0.1-0.1-0.2c0,0-0.1-0.1-0.2-0.1c0,0,0,0-0.1,0c-0.1-0.1-0.2-0.1-0.4-0.1c0,0-0.1,0-0.1,0
				c-0.1,0-0.1,0-0.2,0c-0.1,0-0.1,0-0.2,0.1c0,0-0.1,0.1-0.1,0.1c0,0-0.1,0.1-0.1,0.1c0,0,0,0,0,0c0,0,0,0,0,0c0,0-0.1,0-0.1,0.1
				c-0.2,0.1-0.3,0.2-0.4,0.4c0,0.1-0.1,0.2-0.1,0.2c0,0.1,0,0.2,0,0.3c0,0.1,0,0.2,0,0.3c0,0.1,0.1,0.2,0.1,0.3
				c0,0.1,0.1,0.1,0.1,0.1c0,0,0.1,0.1,0.2,0.1c0,0,0,0,0,0.1c0,0.2,0.2,0.4,0.4,0.5c0.1,0.1,0.2,0.1,0.3,0.1
				c0.2,0.2,0.5,0.2,0.8,0.1c0.1-0.1,0.2-0.1,0.3-0.2c0.1-0.1,0.2-0.2,0.3-0.3c0.1-0.2,0.2-0.4,0.2-0.6
				C355.2,59.5,355.2,59.3,355.1,59.1z"/>
			<path class="st2" d="M380.9,71.7c0-0.3,0-0.6-0.2-0.8c-0.1-0.3-0.4-0.5-0.8-0.5c-0.3,0-0.7,0.2-0.8,0.5c-0.1,0.2-0.1,0.3-0.1,0.5
				c0,0.2,0.1,0.3,0.1,0.4c-0.2,0.4-0.4,0.9-0.2,1.3c0.1,0.3,0.4,0.5,0.8,0.6c0.3,0,0.6-0.1,0.8-0.3c0.2-0.2,0.4-0.5,0.4-0.8
				C381,72.2,380.9,71.9,380.9,71.7z"/>
			<path class="st2" d="M405.9,91.8c0-0.2-0.1-0.4-0.3-0.5c-0.1-0.1-0.1-0.1-0.2-0.2c-0.1-0.1-0.2-0.1-0.4-0.1c-0.2,0-0.4,0-0.5,0.1
				c-0.1,0-0.1,0.1-0.2,0.1c0,0,0,0-0.1,0.1c-0.1,0-0.2,0-0.3,0c-0.1,0-0.1,0-0.2,0.1c0,0-0.1,0-0.1,0.1c-0.1,0.1-0.2,0.2-0.3,0.3
				c0,0.1-0.1,0.1-0.1,0.2c0,0,0,0.1,0,0.1c0,0.2,0,0.3,0,0.5c0,0.1,0.1,0.2,0.1,0.3c0.1,0.1,0.2,0.2,0.3,0.3
				c0.1,0.1,0.2,0.1,0.3,0.2c0.2,0,0.3,0,0.5,0c0.1,0,0.2-0.1,0.2-0.2c0.1,0,0.3,0,0.4,0c0.2,0,0.4-0.1,0.5-0.3
				c0.1-0.1,0.2-0.2,0.3-0.4c0.1-0.1,0.1-0.2,0.1-0.4C405.9,91.9,405.9,91.9,405.9,91.8z"/>
			<path class="st2" d="M433.3,87.5c-0.1-0.2-0.2-0.4-0.4-0.5c-0.2-0.1-0.3-0.1-0.5-0.2c-0.2,0-0.4,0-0.6,0.1
				c-0.2,0.1-0.3,0.2-0.4,0.4c-0.2,0-0.3,0-0.5,0c-0.3,0.1-0.6,0.3-0.7,0.5c-0.1,0.1-0.1,0.3-0.1,0.5c0,0.2,0,0.3,0.1,0.5
				c0.1,0.1,0.2,0.3,0.3,0.4c0.1,0.1,0.3,0.1,0.5,0.1c0.1,0,0.2,0,0.3,0c0.1,0,0.1,0,0.2-0.1c0.2-0.1,0.3-0.1,0.4-0.2
				c0.1-0.1,0.1-0.1,0.2-0.2c0.2,0,0.3,0,0.5-0.1c0.4-0.1,0.7-0.4,0.8-0.7C433.3,87.9,433.3,87.7,433.3,87.5z"/>
			<path class="st2" d="M442.6,72.3c0.1-0.5-0.1-0.9-0.6-1.1c-0.5-0.2-1,0-1.3,0.4c-0.2,0.3-0.2,0.6-0.2,1c-0.2,0.2-0.4,0.5-0.4,0.8
				c-0.1,0.4,0.1,0.8,0.3,1.2c0.1,0.2,0.5,0.3,0.7,0.2c0,0,0,0,0,0c0.3,0,0.5-0.2,0.7-0.4c0.3-0.3,0.4-0.7,0.3-1.1
				C442.4,72.9,442.5,72.6,442.6,72.3z"/>
			<path class="st2" d="M457,72.2c0-0.1-0.1-0.1-0.1-0.1c-0.1-0.1-0.2-0.1-0.3-0.2c-0.1,0-0.1,0-0.2,0c-0.1,0-0.1,0-0.2,0
				c0,0,0,0,0,0c-0.1,0-0.1,0-0.2,0.1c0,0-0.1,0.1-0.1,0.1c0,0-0.1,0.1-0.1,0.1c0,0-0.1,0.1-0.1,0.2c0,0,0,0,0,0c0,0.1,0,0.1,0,0.2
				c0,0.1,0,0.1,0,0.2c0,0.1,0.1,0.1,0.1,0.2c0,0,0.1,0.1,0.2,0.1c0,0,0,0,0,0c0,0,0,0,0.1,0.1c0,0,0,0,0,0c0,0,0.1,0,0.1,0.1
				c0.1,0,0.1,0,0.2,0c0.1,0,0.2,0,0.3-0.1c0,0,0.1-0.1,0.1-0.1c0,0,0.1-0.1,0.1-0.1c0,0,0-0.1,0.1-0.1c0,0,0,0,0,0
				c0-0.1,0-0.1,0-0.2C457,72.4,457,72.4,457,72.2z"/>
			<path class="st2" d="M450.9,46.7c-0.1-0.1-0.2-0.1-0.3-0.2c0,0,0,0,0-0.1c0-0.1-0.1-0.3-0.2-0.4c-0.2-0.2-0.4-0.3-0.6-0.3
				c-0.1,0-0.3,0-0.4,0.1c-0.1,0.1-0.2,0.2-0.3,0.3c-0.1,0.1-0.1,0.3-0.1,0.4c0,0.1,0,0.3,0.1,0.4c0,0,0,0,0,0c0,0.1-0.1,0.2,0,0.3
				c0,0.4,0.2,0.7,0.5,0.8c0.2,0.1,0.3,0.1,0.5,0.1c0.2,0,0.4-0.1,0.5-0.2c0.3-0.2,0.5-0.5,0.5-0.9C451.1,47.1,451,46.8,450.9,46.7z
				"/>
			<path class="st2" d="M442.4,32.3c-0.1-0.2-0.2-0.3-0.4-0.5c0,0,0,0-0.1,0c0-0.1,0-0.1-0.1-0.2c-0.1-0.3-0.4-0.4-0.7-0.4
				c-0.1,0-0.3,0-0.4,0.1c-0.1,0.1-0.2,0.2-0.3,0.3c-0.1,0.1-0.1,0.3-0.1,0.4c0,0.1,0,0.2,0.1,0.4c0,0.1,0,0.3,0,0.4
				c0.1,0.3,0.4,0.6,0.7,0.7c0.3,0.1,0.6,0.1,0.9-0.1c0.2-0.1,0.3-0.3,0.4-0.4C442.5,32.7,442.5,32.5,442.4,32.3z"/>
			<path class="st2" d="M440,12.2c-0.1-0.2-0.2-0.4-0.4-0.5c-0.1-0.1-0.2-0.1-0.3-0.1c0,0,0,0-0.1,0c0,0,0,0-0.1-0.1
				c-0.1-0.1-0.2-0.2-0.4-0.2c-0.3-0.1-0.6,0-0.8,0.2c-0.2,0.2-0.3,0.5-0.2,0.8c0,0.1,0.1,0.3,0.2,0.4c0,0,0.1,0.1,0.1,0.1
				c0.1,0.1,0.1,0.2,0.2,0.3c0.1,0.1,0.3,0.2,0.4,0.2c0.3,0.1,0.7,0,0.9-0.2C440,12.9,440.1,12.5,440,12.2z"/>
			<path class="st2" d="M395.5,15.1c0-0.2,0-0.4-0.1-0.5c-0.1-0.2-0.4-0.3-0.6-0.3c-0.3,0-0.5,0.1-0.7,0.3c-0.1,0-0.1,0-0.2,0
				c-0.2,0.1-0.3,0.1-0.5,0.3c-0.1,0.1-0.2,0.3-0.3,0.5c0,0,0,0.1,0,0.1c-0.1,0.3-0.1,0.6,0.2,0.8c0.2,0.2,0.4,0.2,0.7,0.1
				c0.2,0,0.3-0.1,0.5-0.3c0.2,0,0.3,0,0.5-0.1C395.2,15.7,395.4,15.4,395.5,15.1z"/>
			<path class="st2" d="M382.3,26.9c-0.1-0.1-0.2-0.2-0.4-0.3c-0.1,0-0.3,0-0.4,0c-0.1,0-0.3,0.1-0.4,0.2c0,0.1-0.1,0.1-0.1,0.2
				c0,0,0,0,0,0c0,0,0,0,0,0c0,0,0,0,0,0c0,0,0,0,0,0c-0.1,0.1-0.3,0.1-0.4,0.2c-0.2,0.2-0.2,0.4-0.3,0.6c0,0.1,0,0.2,0,0.3
				c0,0.1,0.1,0.2,0.2,0.3c0.1,0.2,0.3,0.3,0.5,0.3c0.1,0,0.3,0,0.4-0.1c0,0,0.1-0.1,0.1-0.1c0,0,0,0,0,0c0.1,0,0.2-0.1,0.3-0.2
				c0.1-0.1,0.2-0.2,0.2-0.4c0,0,0.1-0.1,0.1-0.1c0.1-0.1,0.1-0.1,0.2-0.2C382.5,27.5,382.4,27.1,382.3,26.9z"/>
			<path class="st2" d="M370.2,37.9c0-0.1,0-0.2,0-0.3c-0.1-0.4-0.5-0.6-0.9-0.5c-0.5,0.1-0.7,0.7-0.7,1.1c0,0,0,0,0,0
				c-0.1,0.2-0.2,0.3-0.2,0.5c0,0.4,0.3,0.7,0.7,0.8c0.4,0.1,0.7-0.1,1-0.3c0.2-0.2,0.4-0.5,0.4-0.9C370.4,38.2,370.3,38,370.2,37.9
				z"/>
			<path class="st2" d="M371.6,35.8C371.6,35.8,371.6,35.8,371.6,35.8C371.6,35.8,371.6,35.8,371.6,35.8c0-0.1-0.1-0.2-0.1-0.3
				c-0.1-0.1-0.1-0.1-0.2-0.2c0,0-0.1-0.1-0.2-0.1c0,0-0.1,0-0.1,0c0,0,0,0,0,0c0,0,0,0,0,0c0,0-0.1,0-0.1,0c0,0,0,0,0,0
				c0,0-0.1,0-0.1,0.1c0,0,0,0,0,0c0,0-0.1,0.1-0.1,0.1c0,0-0.1,0.1-0.1,0.1c0,0,0,0,0,0c0,0,0,0.1-0.1,0.1c0,0,0,0,0,0
				c0,0-0.1,0.1-0.1,0.1c-0.1,0.2-0.1,0.3,0,0.5c0,0.1,0.1,0.1,0.2,0.2c0.1,0,0.2,0.1,0.3,0.1c0.1,0,0.2,0,0.2,0
				c0.1,0,0.2,0,0.2-0.1c0,0,0,0,0,0c0,0,0.1-0.1,0.1-0.1c0,0,0.1-0.1,0.1-0.1c0,0,0.1-0.1,0.1-0.1c0,0,0,0,0,0
				C371.6,36,371.6,36,371.6,35.8C371.6,35.9,371.6,35.9,371.6,35.8C371.6,35.9,371.6,35.9,371.6,35.8z"/>
			<path class="st3" d="M387.5,92.6c-1.6-1-3.1-2-4.7-3l3.6-4.8c0.4-0.5-0.5-1-0.9-0.5c-1.2,1.6-2.4,3.2-3.6,4.8
				c-1.4-0.9-2.7-1.8-4.1-2.6c-0.5-0.3-1.1,0.5-0.5,0.9c1.3,0.9,2.7,1.7,4,2.6c-1.2,1.6-2.3,3.1-3.5,4.7c-0.4,0.5,0.5,1,0.9,0.5
				l3.5-4.6l4.8,3.1C387.5,93.8,388,92.9,387.5,92.6z"/>
			<path class="st3" d="M423,10.5c-1.4-0.5-2.8-1-4.3-1.3l1.3-5.3c0.1-0.6-0.8-0.9-1-0.3l-1.3,5.3c-1.6-0.4-3.3-0.7-5-0.9
				c-0.6-0.1-0.6,0.9,0,1c1.6,0.2,3.2,0.5,4.7,0.9l-1.4,5.9c-0.1,0.6,0.8,0.9,1,0.3l1.4-5.9c1.4,0.4,2.8,0.8,4.2,1.3
				C423.4,11.7,423.6,10.7,423,10.5z"/>
			<path class="st3" d="M462.8,57.9c-1.8-0.6-3.6-1.1-5.5-1.5c0.3-1.5,0.6-2.9,1-4.4c0.1-0.6-0.8-0.9-1-0.3c-0.3,1.5-0.7,3-1,4.4
				c-1.8-0.4-3.6-0.7-5.5-0.9c-0.6-0.1-0.6,0.9,0,1c1.8,0.2,3.5,0.5,5.2,0.9c-0.3,1.6-0.7,3.2-1,4.7c-0.1,0.6,0.8,0.9,1,0.3
				c0.4-1.6,0.7-3.2,1.1-4.8c1.8,0.4,3.6,0.9,5.4,1.5C463.1,59.1,463.4,58.1,462.8,57.9z"/>
		</g>
	</g>
</g>
<g id="Calque_5">
	<g>
		<rect x="466.6" class="st0" width="116.6" height="100"/>
		<g>
			<path class="st2" d="M469.4,59.7C469.4,59.7,469.4,59.7,469.4,59.7c0-0.1,0-0.1-0.1-0.1c-0.1-0.1-0.1-0.1-0.2-0.2
				c0,0-0.2-0.1-0.1-0.1c0,0,0,0,0,0c-0.1,0-0.1,0-0.2,0c0,0,0,0,0,0c0,0,0,0-0.1,0c-0.1,0-0.1,0-0.2,0.1c0,0-0.1,0.1-0.1,0.1
				c-0.1,0.1-0.1,0.2-0.1,0.3c0,0,0,0,0,0c0,0,0,0.1,0,0.1c0,0,0,0,0,0c0,0,0,0,0,0c0,0,0,0.1,0.1,0.1c0,0,0,0,0,0
				c0.1,0.1,0.1,0.1,0.2,0.2c0.1,0.1,0.2,0.1,0.3,0.1c0,0,0.1,0,0.1,0c0,0,0,0,0.1,0c0,0,0,0,0,0c0.1,0,0.1-0.1,0.2-0.1
				c0.1-0.1,0.1-0.2,0.1-0.3c0,0,0-0.1,0-0.2c0,0,0,0,0,0C469.4,59.8,469.4,59.7,469.4,59.7z"/>
			<path class="st2" d="M485.7,37.7C485.7,37.7,485.7,37.7,485.7,37.7c0-0.1,0-0.2-0.1-0.2c0,0,0,0,0,0c0,0,0,0,0,0c0,0,0-0.1,0-0.1
				c0-0.1-0.1-0.1-0.1-0.1c0,0-0.1-0.1-0.2-0.1c0,0-0.1,0-0.1,0c-0.1,0-0.2,0-0.3,0.1c0,0,0,0,0,0c0,0,0,0,0,0c0,0-0.1,0-0.1,0
				c-0.1,0-0.1,0-0.2,0.1c-0.1,0-0.1,0.1-0.1,0.1c0,0.1-0.1,0.1-0.1,0.2c0,0.1,0,0.1,0,0.2c0,0,0,0.1,0.1,0.1c0,0.1,0.1,0.1,0.2,0.2
				c0,0,0,0,0.1,0c0,0,0,0,0,0.1c0,0,0.1,0.1,0.1,0.1c0,0,0,0,0,0c0,0,0.1,0,0.1,0.1c0,0,0,0,0,0c0,0,0.1,0,0.1,0c0,0,0.1,0,0.1,0
				c0.1,0,0.1,0,0.2,0c0,0,0.1,0,0.1-0.1c0,0,0,0,0,0c0,0,0,0,0,0c0,0,0.1-0.1,0.1-0.1c0,0,0,0,0,0c0,0,0.1-0.1,0.1-0.1
				c0,0,0.1-0.1,0.1-0.1C485.7,37.8,485.7,37.8,485.7,37.7z"/>
			<path class="st2" d="M521.7,92.7c-0.6,0-0.6,1,0,1C522.4,93.7,522.4,92.7,521.7,92.7z"/>
			<path class="st2" d="M558.9,72.4c-0.6,0-0.6,1,0,1C559.5,73.4,559.5,72.4,558.9,72.4z"/>
			<path class="st2" d="M556,11.7c0-0.1,0-0.1,0-0.2c0-0.1,0-0.1-0.1-0.2c0,0-0.1-0.1-0.1-0.1c-0.1-0.1-0.1-0.1-0.2-0.1
				c0,0-0.1,0-0.1,0c-0.1,0-0.2,0-0.3,0.1c-0.1,0-0.1,0.1-0.2,0.1c0,0-0.1,0.1-0.1,0.1c0,0-0.1,0.1-0.1,0.1c0,0,0,0.1-0.1,0.1
				c0,0.1,0,0.1,0,0.2c0,0,0,0.1,0,0.1c0,0,0,0.1,0.1,0.1c0,0,0.1,0.1,0.1,0.1c0,0,0.1,0.1,0.2,0.1c0.1,0,0.1,0,0.2,0.1
				c0.1,0,0.1,0,0.2,0c0.1,0,0.1,0,0.2-0.1c0.1,0,0.1-0.1,0.1-0.1c0,0,0.1-0.1,0.1-0.2C556,11.8,556,11.8,556,11.7
				C556,11.7,556,11.7,556,11.7z"/>
			<path class="st3" d="M495.4,94.4c0-0.1-0.1-0.1-0.1-0.2c-0.1-0.1-0.2-0.1-0.4-0.1c-0.1,0-0.3,0.1-0.3,0.2
				c-0.2,0.2-0.4,0.5-0.6,0.7c-0.1,0.1-0.1,0.2-0.1,0.4c0,0.1,0,0.1,0.1,0.2c0,0.1,0.1,0.1,0.1,0.2c0.1,0.1,0.2,0.1,0.4,0.1
				c0.1,0,0.3-0.1,0.3-0.2c0.2-0.2,0.4-0.5,0.6-0.7c0.1-0.1,0.1-0.2,0.1-0.4C495.5,94.5,495.5,94.4,495.4,94.4z"/>
			<path class="st3" d="M494.7,86.5c-0.3-0.2-0.6-0.4-0.8-0.6c-0.1-0.1-0.2-0.1-0.4-0.1c-0.1,0-0.3,0.1-0.3,0.2
				c-0.1,0.1-0.1,0.2-0.1,0.4c0,0.1,0.1,0.2,0.2,0.3l0.8,0.6c0.1,0.1,0.2,0.1,0.4,0.1c0.1,0,0.3-0.1,0.3-0.2
				c0.1-0.1,0.1-0.2,0.1-0.4C494.9,86.7,494.8,86.6,494.7,86.5z"/>
			<path class="st3" d="M504.8,93.3c0-0.1-0.1-0.2-0.1-0.2c-0.2-0.2-0.5-0.4-0.7-0.6c0,0-0.1-0.1-0.2-0.1c-0.1,0-0.1,0-0.2,0
				c-0.1,0-0.3,0.1-0.4,0.1c-0.1,0.1-0.2,0.2-0.1,0.4c0,0,0,0.1,0,0.1c0,0.1,0.1,0.2,0.1,0.2c0.2,0.2,0.5,0.4,0.7,0.6
				c0,0,0.1,0.1,0.2,0.1c0.1,0,0.1,0,0.2,0c0.1,0,0.3-0.1,0.4-0.1c0.1-0.1,0.2-0.2,0.1-0.4C504.8,93.4,504.8,93.3,504.8,93.3z"/>
			<path class="st3" d="M503.4,83.7c0-0.1-0.1-0.1-0.1-0.1c-0.1-0.1-0.2-0.1-0.4-0.1c0,0-0.1,0-0.1,0c-0.1,0-0.1,0.1-0.2,0.2
				c-0.1,0.2-0.3,0.4-0.4,0.6c0,0.1-0.1,0.1-0.1,0.2c0,0.1,0,0.1,0,0.2c0,0.1,0,0.1,0.1,0.2c0,0.1,0.1,0.1,0.1,0.1
				c0.1,0.1,0.2,0.1,0.4,0.1c0,0,0.1,0,0.1,0c0.1,0,0.1-0.1,0.2-0.2c0.1-0.2,0.3-0.4,0.4-0.6c0-0.1,0.1-0.1,0.1-0.2
				c0-0.1,0-0.1,0-0.2C503.5,83.8,503.4,83.8,503.4,83.7z"/>
			<path class="st3" d="M533.8,15c-0.1-0.1-0.2-0.2-0.3-0.2c-0.1,0-0.3,0-0.4,0.1c-0.1,0.1-0.2,0.2-0.2,0.3
				c-0.1,0.4-0.1,0.7-0.2,1.1c0,0.1,0,0.3,0.1,0.4c0.1,0.1,0.2,0.2,0.3,0.2c0.1,0,0.3,0,0.4-0.1c0.1-0.1,0.2-0.2,0.2-0.3
				c0.1-0.4,0.1-0.7,0.2-1.1C533.9,15.2,533.9,15.1,533.8,15z"/>
			<path class="st3" d="M529.7,8.2c-0.1-0.1-0.2-0.1-0.4-0.1c-0.3,0-0.6,0-1,0c-0.1,0-0.3,0.1-0.4,0.1c-0.1,0.1-0.2,0.2-0.1,0.4
				c0,0.1,0,0.3,0.1,0.4c0.1,0.1,0.2,0.1,0.4,0.1c0.3,0,0.6,0,1,0c0.1,0,0.3-0.1,0.4-0.1c0.1-0.1,0.2-0.2,0.1-0.4
				C529.9,8.4,529.8,8.2,529.7,8.2z"/>
			<path class="st3" d="M536.8,2.7c0-0.1-0.1-0.1-0.1-0.1c0,0-0.1-0.1-0.2-0.1c-0.1,0-0.3,0-0.4,0.1c0,0-0.1,0.1-0.1,0.1
				c-0.1,0.1-0.1,0.1-0.1,0.2c-0.1,0.2-0.2,0.4-0.2,0.7c0,0.1,0,0.1,0,0.2c0,0.1,0,0.1,0.1,0.2c0,0.1,0.1,0.1,0.1,0.1
				c0,0,0.1,0.1,0.2,0.1c0.1,0,0.3,0,0.4-0.1c0,0,0.1-0.1,0.1-0.1c0.1-0.1,0.1-0.1,0.1-0.2c0.1-0.2,0.2-0.4,0.2-0.7
				c0-0.1,0-0.1,0-0.2C536.9,2.8,536.9,2.7,536.8,2.7z"/>
			<path class="st3" d="M540.1,10.7c-0.1-0.1-0.2-0.2-0.3-0.2c-0.3-0.1-0.5-0.1-0.8-0.2c-0.1,0-0.3,0-0.4,0.1
				c-0.1,0.1-0.2,0.2-0.2,0.3c0,0.1,0,0.3,0.1,0.4c0.1,0.1,0.2,0.2,0.3,0.2c0.3,0.1,0.5,0.1,0.8,0.2c0.1,0,0.3,0,0.4-0.1
				c0.1-0.1,0.2-0.2,0.2-0.3C540.2,11,540.1,10.8,540.1,10.7z"/>
			<path class="st3" d="M572.6,61.6c0-0.1-0.1-0.1-0.1-0.1c-0.1,0-0.1-0.1-0.2-0.1c-0.1,0-0.3,0-0.4,0.1c-0.1,0.1-0.2,0.2-0.2,0.3
				c0,0.2-0.1,0.4-0.1,0.7c0,0.1,0,0.1,0,0.2c0,0.1,0,0.1,0.1,0.2c0,0.1,0.1,0.1,0.1,0.1c0.1,0,0.1,0.1,0.2,0.1c0.1,0,0.3,0,0.4-0.1
				c0.1-0.1,0.2-0.2,0.2-0.3c0-0.2,0.1-0.4,0.1-0.7c0-0.1,0-0.1,0-0.2C572.7,61.7,572.7,61.6,572.6,61.6z"/>
			<path class="st3" d="M568.1,55.4c-0.1-0.1-0.2-0.2-0.3-0.2c-0.2,0-0.5-0.1-0.7-0.1c-0.1,0-0.3,0-0.4,0.1c-0.1,0-0.1,0.1-0.1,0.1
				c0,0.1-0.1,0.1-0.1,0.2c0,0.1,0,0.3,0.1,0.4c0.1,0.1,0.2,0.2,0.3,0.2l0.7,0.1c0.1,0,0.3,0,0.4-0.1c0.1,0,0.1-0.1,0.1-0.1
				c0-0.1,0.1-0.1,0.1-0.2C568.2,55.7,568.2,55.5,568.1,55.4z"/>
			<path class="st3" d="M575,50.9c-0.1-0.1-0.2-0.2-0.3-0.2c-0.1,0-0.3,0-0.4,0.1c0,0-0.1,0.1-0.1,0.1c-0.1,0.1-0.1,0.2-0.1,0.2
				c-0.1,0.3-0.1,0.5-0.2,0.8c0,0.1,0,0.1,0,0.2c0,0.1,0,0.1,0.1,0.2c0.1,0.1,0.2,0.2,0.3,0.2c0.1,0,0.3,0,0.4-0.1
				c0,0,0.1-0.1,0.1-0.1c0.1-0.1,0.1-0.2,0.1-0.2c0.1-0.3,0.1-0.5,0.2-0.8c0-0.1,0-0.1,0-0.2C575,51,575,51,575,50.9z"/>
			<path class="st3" d="M580.6,58.4c-0.1-0.1-0.2-0.2-0.3-0.2c-0.3-0.1-0.6-0.2-0.9-0.3c-0.1,0-0.3,0-0.4,0.1
				c-0.1,0.1-0.2,0.2-0.2,0.3c0,0.1,0,0.3,0.1,0.4c0.1,0.1,0.2,0.2,0.3,0.2c0.3,0.1,0.6,0.2,0.9,0.3c0.1,0,0.3,0,0.4-0.1
				c0.1-0.1,0.2-0.2,0.2-0.3C580.7,58.6,580.7,58.5,580.6,58.4z"/>
		</g>
	</g>
</g>
<g id="Calque_6">
	<g>
		<rect x="583.2" class="st0" width="116.6" height="100"/>
		<g>
			<path class="st3" d="M610.9,95c-0.6,0-0.6,1,0,1C611.5,96,611.5,95,610.9,95z"/>
			<path class="st3" d="M610,85.5c-0.6,0-0.6,1,0,1C610.6,86.5,610.6,85.5,610,85.5z"/>
			<path class="st3" d="M619.8,83.2c-0.6,0-0.6,1,0,1C620.4,84.2,620.4,83.2,619.8,83.2z"/>
			<path class="st3" d="M621.3,93.1c-0.6,0-0.6,1,0,1C621.9,94.1,621.9,93.1,621.3,93.1z"/>
			<path class="st3" d="M649.7,16.1c-0.6,0-0.6,1,0,1C650.4,17.1,650.4,16.1,649.7,16.1z"/>
			<path class="st3" d="M644.7,8c-0.6,0-0.6,1,0,1C645.3,9,645.3,8,644.7,8z"/>
			<path class="st3" d="M653.1,2c-0.6,0-0.6,1,0,1C653.8,3,653.8,2,653.1,2z"/>
			<path class="st3" d="M656.9,10.6c-0.6,0-0.6,1,0,1C657.5,11.6,657.5,10.6,656.9,10.6z"/>
			<path class="st3" d="M688.7,62.4c-0.6,0-0.6,1,0,1C689.4,63.4,689.4,62.4,688.7,62.4z"/>
			<path class="st3" d="M683.2,55c-0.6,0-0.6,1,0,1C683.9,56,683.9,55,683.2,55z"/>
			<path class="st3" d="M691.3,50.2c-0.6,0-0.6,1,0,1C692,51.2,692,50.2,691.3,50.2z"/>
			<path class="st3" d="M697.2,58.2c-0.6,0-0.6,1,0,1C697.8,59.2,697.8,58.2,697.2,58.2z"/>
		</g>
	</g>
	<g class="st4">
		<rect x="699.8" class="st5" width="116.6" height="100"/>
	</g>
</g>
</svg>
